<svg width="408.000000" height="421.000000" viewBox="0 0 408 421" fill="none" xmlns="http://www.w3.org/2000/svg" xmlns:xlink="http://www.w3.org/1999/xlink">
	<desc>
			Created with Pixso.
	</desc>
	<path d="M203.871 32.3711C203.871 33.209 203.139 33.8887 202.26 33.8887C201.375 33.8887 200.649 33.209 200.649 32.3711C200.649 31.5391 201.375 30.8477 202.26 30.8477C203.139 30.8477 203.871 31.5391 203.871 32.3711ZM165.107 44.3828L163.508 49L160.713 49L166.994 31.5449L170.035 31.5449L176.316 49L173.521 49L171.927 44.3828L165.107 44.3828ZM195.475 35.9102L198.159 35.9102L198.159 37.9551L195.475 37.9551L195.475 45.1562C195.475 46.6328 196.219 46.9023 197.046 46.9023C197.456 46.9023 197.766 46.8262 197.936 46.791L198.399 48.9004C198.1 49.0059 197.555 49.1641 196.747 49.1699C194.737 49.2109 192.921 48.0625 192.926 45.6836L192.926 37.9551L191.01 37.9551L191.01 35.9102L192.926 35.9102L192.926 32.7754L195.475 32.7754L195.475 35.9102ZM168.453 34.7148L165.875 42.1621L171.16 42.1621L168.588 34.7148L168.453 34.7148ZM189.312 44.8574C189.031 47.4062 187.027 49.2637 183.933 49.2637C180.136 49.2637 177.834 46.4629 177.834 42.5137C177.834 38.5176 180.219 35.7402 183.91 35.7402C186.886 35.7402 189.043 37.4922 189.312 40.1348L186.834 40.1348C186.558 38.9102 185.574 37.8848 183.951 37.8848C181.824 37.8848 180.406 39.6484 180.406 42.4551C180.406 45.3086 181.795 47.1074 183.951 47.1074C185.41 47.1074 186.511 46.2754 186.834 44.8574L189.312 44.8574ZM218.564 42.5137C218.564 46.5625 216.15 49.2637 212.459 49.2637C208.773 49.2637 206.359 46.5625 206.359 42.5137C206.359 38.4414 208.773 35.7402 212.459 35.7402C216.15 35.7402 218.564 38.4414 218.564 42.5137ZM227.001 37.9434C225.226 37.9434 223.949 39.1387 223.949 41.2246L223.949 49L221.4 49L221.4 35.9102L223.849 35.9102L223.849 38.0371L224.007 38.0371C224.617 36.6484 225.9 35.7402 227.869 35.7402C230.546 35.7402 232.328 37.4336 232.328 40.6738L232.328 49L229.779 49L229.779 40.9785C229.779 39.0801 228.73 37.9434 227.001 37.9434ZM240.593 35.7402C243.423 35.7402 245.016 37.0703 245.55 39.1035L243.235 39.5137C242.936 38.6348 242.204 37.7559 240.622 37.7559C239.175 37.7559 238.079 38.4766 238.091 39.4785C238.079 40.3691 238.706 40.8496 240.141 41.1953L242.221 41.6699C244.624 42.2266 245.802 43.3691 245.802 45.2148C245.802 47.5879 243.61 49.2637 240.452 49.2637C237.511 49.2637 235.583 47.9629 235.155 45.6426L237.622 45.2676C237.927 46.5566 238.905 47.2129 240.434 47.2129C242.104 47.2129 243.188 46.416 243.188 45.4023C243.188 44.5879 242.596 44.0254 241.337 43.7441L239.122 43.2578C236.667 42.7129 235.542 41.4766 235.542 39.6191C235.542 37.2988 237.639 35.7402 240.593 35.7402ZM203.52 49L200.971 49L200.971 35.9102L203.52 35.9102L203.52 49ZM208.932 42.5078C208.932 45.0215 210.057 47.125 212.471 47.125C214.867 47.125 215.992 45.0215 215.992 42.5078C215.992 40 214.867 37.8672 212.471 37.8672C210.057 37.8672 208.932 40 208.932 42.5078Z" fill="#02CCCC"/>
	<g clip-path="url(#clip736_5556)">
		<path d="M36 138C41.9 138 44.0869 142.332 44.7515 144.18C44.9426 144.712 44.9426 145.288 44.7515 145.82C44.0869 147.668 41.9 152 36 152C30.1 152 27.9131 147.668 27.2485 145.82C27.0574 145.288 27.0574 144.712 27.2485 144.18C27.9131 142.332 30.1 138 36 138ZM39 145C39 143.343 37.6569 142 36 142C34.3431 142 33 143.343 33 145C33 146.657 34.3431 148 36 148C37.6569 148 39 146.657 39 145Z" stroke="#02CCCC" stroke-linejoin="round" stroke-linecap="round"/>
	</g>
	<g clip-path="url(#clip736_5558)">
		<path d="M123.489 144.895Q123.543 145.15 123.692 145.575Q123.995 146.441 124.462 147.25Q125.191 148.515 126.206 149.427Q126.307 149.518 126.41 149.605C126.418 149.611 126.426 149.618 126.434 149.625Q127.633 150.623 129.148 151.093Q130.464 151.5 132 151.5Q133.536 151.5 134.852 151.093Q136.373 150.622 137.576 149.616Q138.73 148.652 139.538 147.25Q140.005 146.441 140.308 145.575Q140.457 145.15 140.511 144.895L141.489 145.105Q141.421 145.42 141.252 145.905Q141.005 146.61 140.661 147.279L141.219 147.55C141.47 147.673 141.572 147.967 141.45 148.219C141.327 148.47 141.033 148.572 140.781 148.45L140.163 148.149Q139.494 149.202 138.629 150.018L139.85 151.213C140.05 151.409 140.053 151.72 139.857 151.92C139.661 152.12 139.35 152.123 139.15 151.927L137.862 150.666Q136.874 151.409 135.71 151.854L136.444 153.27C136.573 153.519 136.479 153.815 136.23 153.944C135.981 154.073 135.685 153.979 135.556 153.73L134.744 152.163Q133.68 152.442 132.5 152.49L132.5 154C132.5 154.28 132.28 154.5 132 154.5C131.72 154.5 131.5 154.28 131.5 154L131.5 152.49Q130.32 152.442 129.256 152.163L128.444 153.73C128.315 153.979 128.019 154.073 127.77 153.944C127.521 153.815 127.427 153.519 127.556 153.27L128.29 151.854Q127.12 151.408 126.13 150.66L124.842 151.865C124.637 152.056 124.326 152.046 124.135 151.842C123.944 151.637 123.954 151.326 124.158 151.135L125.362 150.009Q124.502 149.195 123.837 148.149L123.219 148.45C122.967 148.572 122.673 148.47 122.55 148.219C122.428 147.967 122.53 147.673 122.781 147.55L123.339 147.279Q122.995 146.61 122.748 145.905Q122.579 145.42 122.511 145.105L123.489 144.895Z" fill-rule="evenodd" fill="#02CCCC"/>
	</g>
	<g clip-path="url(#clip736_5560)">
		<path d="M76.6465 138.354C76.4485 138.156 76.4485 137.844 76.6465 137.646C76.8445 137.448 77.1555 137.448 77.3535 137.646L78.6705 138.963Q79.3215 138.545 80.0448 138.244Q81.8326 137.5 84 137.5Q86.1674 137.5 87.9552 138.244Q89.4816 138.879 90.6854 140.036Q91.65 140.963 92.3646 142.182Q92.8805 143.061 93.222 144.011Q93.3949 144.492 93.3949 145Q93.3949 145.508 93.222 145.989Q92.8805 146.939 92.3646 147.818Q91.65 149.037 90.6854 149.964Q90.4243 150.214 90.1481 150.441L91.3535 151.646C91.5515 151.844 91.5515 152.156 91.3535 152.354C91.1555 152.552 90.8445 152.552 90.6465 152.354L89.3295 151.037Q88.6785 151.455 87.9552 151.756Q86.1674 152.5 84 152.5Q81.8326 152.5 80.0448 151.756Q78.5184 151.121 77.3146 149.964Q76.35 149.037 75.6354 147.818Q75.1195 146.939 74.778 145.989Q74.6051 145.508 74.6051 145Q74.6051 144.492 74.778 144.011Q75.1195 143.061 75.6354 142.182Q76.35 140.963 77.3146 140.036Q77.5757 139.786 77.8519 139.559L76.6465 138.354ZM89.9926 149.242Q89.7238 149.501 89.4369 149.73L86.8036 147.096Q87.0575 146.758 87.2247 146.362Q87.5 145.712 87.5 145Q87.5 144.288 87.2247 143.638Q86.959 143.009 86.4749 142.525Q85.9907 142.041 85.3625 141.775Q84.7118 141.5 84 141.5Q83.2882 141.5 82.6375 141.775Q82.2419 141.943 81.9036 142.196L79.3966 139.689Q79.8903 139.392 80.4291 139.167Q82.0325 138.5 84 138.5Q85.9675 138.5 87.5709 139.167Q88.924 139.731 89.9926 140.758Q90.8574 141.589 91.5021 142.688Q91.9709 143.487 92.281 144.349Q92.3949 144.666 92.3949 145Q92.3949 145.334 92.281 145.651Q91.9709 146.513 91.5021 147.312Q90.8574 148.411 89.9926 149.242ZM80.7753 143.638Q80.9425 143.242 81.1964 142.904L78.5631 140.27Q78.2762 140.499 78.0074 140.758Q77.1426 141.589 76.4979 142.688Q76.0291 143.487 75.719 144.349Q75.6051 144.666 75.6051 145Q75.6051 145.334 75.719 145.651Q76.0291 146.513 76.4979 147.312Q77.1426 148.411 78.0074 149.242Q79.076 150.269 80.4291 150.833Q82.0325 151.5 84 151.5Q85.9675 151.5 87.5709 150.833Q88.1097 150.608 88.6034 150.311L86.0964 147.804Q85.7581 148.057 85.3625 148.225Q84.7118 148.5 84 148.5Q83.2882 148.5 82.6375 148.225Q82.0093 147.959 81.5251 147.475Q81.041 146.991 80.7753 146.362Q80.5 145.712 80.5 145Q80.5 144.288 80.7753 143.638ZM86.3037 145.973Q86.2129 146.188 86.0862 146.379L82.621 142.914Q82.8123 142.787 83.0271 142.696Q83.4911 142.5 84 142.5Q84.5089 142.5 84.9729 142.696Q85.4215 142.886 85.7678 143.232Q86.114 143.578 86.3037 144.027Q86.5 144.491 86.5 145Q86.5 145.509 86.3037 145.973ZM85.379 147.086L81.9138 143.621Q81.7871 143.812 81.6963 144.027Q81.5 144.491 81.5 145Q81.5 145.509 81.6963 145.973Q81.886 146.422 82.2322 146.768Q82.5785 147.114 83.0271 147.304Q83.4911 147.5 84 147.5Q84.5089 147.5 84.9729 147.304Q85.1877 147.213 85.379 147.086Z" fill-rule="evenodd" fill="#02CCCC"/>
	</g>
	<g clip-path="url(#clip736_5562)">
		<path d="M284 103C284 104.105 283.105 105 282 105L280 105C278.895 105 278 104.105 278 103L278 101C278 99.8954 277.105 99 276 99C274.895 99 274 99.8954 274 101L274 103C274 104.105 273.105 105 272 105L270 105C268.895 105 268 104.105 268 103L268 95.9075C268 95.3308 268.249 94.7822 268.683 94.4024L274.683 89.1524C275.437 88.4926 276.563 88.4926 277.317 89.1524L283.317 94.4024C283.751 94.7822 284 95.3308 284 95.9075L284 103Z" stroke="#02CCCC" stroke-linejoin="round"/>
	</g>
	<g clip-path="url(#clip736_5564)">
		<path d="M329 88C330.105 88 331 88.8954 331 90L331 107L325.361 101.764C324.594 101.051 323.406 101.051 322.639 101.764L317 107L317 90C317 88.8954 317.895 88 319 88L329 88Z" stroke="#02CCCC" stroke-linejoin="round" stroke-linecap="round"/>
	</g>
	<g clip-path="url(#clip736_5566)">
		<path d="M220.367 89.7853C218.122 92.2421 219.02 95.1902 220.367 97.647C221.775 100.214 228 106 228 106C228 106 234.286 100.104 235.633 97.647C236.98 95.1902 237.878 92.2421 235.633 89.7853C233.388 87.3286 230.694 87.3286 228 90.2767C225.306 87.3286 222.612 87.3286 220.367 89.7853Z" stroke="#02CCCC" stroke-linejoin="round" stroke-linecap="round"/>
	</g>
	<g clip-path="url(#clip736_5568)">
		<path d="M134.781 93.5961L141 94.4934L136.5 98.8494L137.562 105L132 102.096L126.438 105L127.5 98.8494L123 94.4934L129.219 93.5961L132 88L134.781 93.5961Z" stroke="#02CCCC" stroke-linejoin="round" stroke-linecap="round"/>
	</g>
	<g clip-path="url(#clip736_5570)">
		<path d="M180 88L180 102.096L174.438 105L175.5 98.8494L171 94.4934L177.219 93.5961L180 88Z" stroke="#02CCCC" stroke-linejoin="round" stroke-linecap="round"/>
	</g>
	<g clip-path="url(#clip736_5572)">
		<path d="M381 234.5L376.5 234.5L376.5 234Q376.5 233.492 376.303 233.027Q376.114 232.578 375.768 232.232Q375.422 231.886 374.973 231.697Q374.508 231.5 374 231.5L370 231.5Q369.492 231.5 369.027 231.697Q368.578 231.886 368.232 232.232Q367.886 232.578 367.697 233.027Q367.5 233.492 367.5 234L367.5 234.5L363 234.5C362.72 234.5 362.5 234.72 362.5 235C362.5 235.28 362.72 235.5 363 235.5L364.5 235.5L364.5 248Q364.5 248.508 364.697 248.973Q364.886 249.422 365.232 249.768Q365.578 250.114 366.027 250.303Q366.492 250.5 367 250.5L377 250.5Q377.508 250.5 377.973 250.303Q378.422 250.114 378.768 249.768Q379.114 249.422 379.303 248.973Q379.5 248.508 379.5 248L379.5 235.5L381 235.5C381.28 235.5 381.5 235.28 381.5 235C381.5 234.72 381.28 234.5 381 234.5ZM375.5 234.5L368.5 234.5L368.5 234Q368.5 233.695 368.618 233.416Q368.731 233.147 368.939 232.939Q369.147 232.732 369.416 232.618Q369.694 232.5 370 232.5L374 232.5Q374.306 232.5 374.584 232.618Q374.853 232.732 375.061 232.939Q375.269 233.147 375.382 233.416Q375.5 233.695 375.5 234L375.5 234.5ZM365.5 248L365.5 235.5L378.5 235.5L378.5 248Q378.5 248.305 378.382 248.584Q378.269 248.853 378.061 249.061Q377.853 249.268 377.584 249.382Q377.306 249.5 377 249.5L367 249.5Q366.694 249.5 366.416 249.382Q366.147 249.268 365.939 249.061Q365.731 248.853 365.618 248.584Q365.5 248.305 365.5 248Z" fill-rule="evenodd" fill="#02CCCC"/>
	</g>
	<g clip-path="url(#clip736_5574)">
		<path d="M43.3535 187.354L32.3535 198.354Q32.3284 198.379 32.3 198.4Q32.2606 198.43 32.2162 198.451Q32.1718 198.472 32.1241 198.484Q32.0764 198.497 32.0272 198.499Q31.9781 198.502 31.9293 198.495Q31.8805 198.488 31.8341 198.472Q31.7876 198.455 31.7452 198.43Q31.7029 198.405 31.6662 198.372Q31.6295 198.339 31.6 198.3L28.6 194.3C28.432 194.076 28.476 193.768 28.7 193.6C28.924 193.432 29.2321 193.476 29.4 193.7L32.0541 197.239L42.6465 186.646C42.8445 186.448 43.1555 186.448 43.3535 186.646C43.5515 186.844 43.5515 187.156 43.3535 187.354Z" fill-rule="evenodd" fill="#02CCCC"/>
	</g>
	<g clip-path="url(#clip736_5576)">
		<path d="M77.6465 187.354C77.4485 187.156 77.4485 186.844 77.6465 186.646C77.8445 186.448 78.1555 186.448 78.3535 186.646L84 192.293L89.6465 186.646C89.8445 186.448 90.1555 186.448 90.3535 186.646C90.5515 186.844 90.5515 187.156 90.3535 187.354L84.7072 193L90.3535 198.646C90.5515 198.844 90.5515 199.156 90.3535 199.354C90.1555 199.552 89.8445 199.552 89.6465 199.354L84 193.707L78.3535 199.354C78.1555 199.552 77.8445 199.552 77.6465 199.354C77.4485 199.156 77.4485 198.844 77.6465 198.646L83.2928 193L77.6465 187.354Z" fill-rule="evenodd" fill="#02CCCC"/>
	</g>
	<g clip-path="url(#clip736_5578)">
		<path d="M125 187.5C124.72 187.5 124.5 187.28 124.5 187C124.5 186.72 124.72 186.5 125 186.5L139 186.5C139.28 186.5 139.5 186.72 139.5 187C139.5 187.28 139.28 187.5 139 187.5L125 187.5ZM125 193.5C124.72 193.5 124.5 193.28 124.5 193C124.5 192.72 124.72 192.5 125 192.5L139 192.5C139.28 192.5 139.5 192.72 139.5 193C139.5 193.28 139.28 193.5 139 193.5L125 193.5ZM125 198.5L139 198.5C139.28 198.5 139.5 198.72 139.5 199C139.5 199.28 139.28 199.5 139 199.5L125 199.5C124.72 199.5 124.5 199.28 124.5 199C124.5 198.72 124.72 198.5 125 198.5Z" fill-rule="evenodd" fill="#02CCCC"/>
	</g>
	<g clip-path="url(#clip736_5580)">
		<path d="M180 188C179.448 188 179 187.552 179 187C179 186.448 179.448 186 180 186C180.552 186 181 186.448 181 187C181 187.552 180.552 188 180 188ZM180 194C179.448 194 179 193.552 179 193C179 192.448 179.448 192 180 192C180.552 192 181 192.448 181 193C181 193.552 180.552 194 180 194ZM180 200C179.448 200 179 199.552 179 199C179 198.448 179.448 198 180 198C180.552 198 181 198.448 181 199C181 199.552 180.552 200 180 200Z" stroke="#02CCCC"/>
	</g>
	<g clip-path="url(#clip736_5582)">
		<path d="M222 194C221.448 194 221 193.552 221 193C221 192.448 221.448 192 222 192C222.552 192 223 192.448 223 193C223 193.552 222.552 194 222 194ZM228 194C227.448 194 227 193.552 227 193C227 192.448 227.448 192 228 192C228.552 192 229 192.448 229 193C229 193.552 228.552 194 228 194ZM234 194C233.448 194 233 193.552 233 193C233 192.448 233.448 192 234 192C234.552 192 235 192.448 235 193C235 193.552 234.552 194 234 194Z" stroke="#02CCCC" stroke-linejoin="round" stroke-linecap="round"/>
	</g>
	<g clip-path="url(#clip736_5584)">
		<path d="M35.5 89C35.5 88.72 35.72 88.5 36 88.5C36.28 88.5 36.5 88.72 36.5 89L36.5 96.5L44 96.5C44.28 96.5 44.5 96.72 44.5 97C44.5 97.28 44.28 97.5 44 97.5L36.5 97.5L36.5 105C36.5 105.28 36.28 105.5 36 105.5C35.72 105.5 35.5 105.28 35.5 105L35.5 97.5L28 97.5C27.72 97.5 27.5 97.28 27.5 97C27.5 96.72 27.72 96.5 28 96.5L35.5 96.5L35.5 89Z" fill-rule="evenodd" fill="#02CCCC"/>
	</g>
	<g clip-path="url(#clip736_5586)">
		<path d="M76 97.5C75.72 97.5 75.5 97.28 75.5 97C75.5 96.72 75.72 96.5 76 96.5L92 96.5C92.28 96.5 92.5 96.72 92.5 97C92.5 97.28 92.28 97.5 92 97.5L76 97.5Z" fill-rule="evenodd" fill="#02CCCC"/>
	</g>
	<g clip-path="url(#clip736_5588)">
		<path d="M279.646 143.646L280.646 142.646L281.646 141.646Q281.982 141.311 282.158 140.876Q282.328 140.456 282.328 140Q282.328 139.544 282.158 139.124Q281.982 138.689 281.646 138.354Q281.311 138.018 280.876 137.842Q280.456 137.672 280 137.672Q279.544 137.672 279.124 137.842Q278.689 138.018 278.354 138.354L275.354 141.354Q274.681 142.026 274.298 142.725Q273.955 143.35 273.87 143.946Q273.794 144.48 273.932 144.933Q274.059 145.352 274.354 145.646C274.552 145.844 274.552 146.156 274.354 146.354C274.156 146.552 273.844 146.552 273.646 146.354Q273.175 145.882 272.975 145.224Q272.772 144.558 272.88 143.804Q272.991 143.028 273.421 142.244Q273.873 141.42 274.646 140.646L277.646 137.646Q278.125 137.168 278.748 136.915Q279.349 136.672 280 136.672Q280.651 136.672 281.252 136.915Q281.875 137.168 282.354 137.646Q282.832 138.125 283.085 138.748Q283.328 139.349 283.328 140Q283.328 140.651 283.085 141.252Q282.832 141.875 282.354 142.354L281.354 143.354L280.354 144.354C280.156 144.552 279.844 144.552 279.646 144.354C279.448 144.156 279.448 143.844 279.646 143.646ZM276.646 144.354C276.448 144.156 276.448 143.844 276.646 143.646C276.844 143.448 277.156 143.448 277.354 143.646Q277.818 144.111 278.009 144.575Q278.235 145.124 278.115 145.723Q278.001 146.296 277.554 146.953Q277.129 147.578 276.354 148.354L273.354 151.354Q272.875 151.832 272.252 152.085Q271.651 152.328 271 152.328Q270.349 152.328 269.748 152.085Q269.125 151.832 268.646 151.354Q268.168 150.875 267.915 150.252Q267.672 149.651 267.672 149Q267.672 148.349 267.915 147.748Q268.168 147.125 268.646 146.646L269.646 145.646L270.646 144.646C270.844 144.448 271.156 144.448 271.354 144.646C271.552 144.844 271.552 145.156 271.354 145.354L270.354 146.354L269.354 147.354Q269.018 147.689 268.842 148.124Q268.672 148.544 268.672 149Q268.672 149.456 268.842 149.876Q269.018 150.311 269.354 150.646Q269.689 150.982 270.124 151.158Q270.544 151.328 271 151.328Q271.456 151.328 271.876 151.158Q272.311 150.982 272.646 150.646L275.646 147.646Q276.977 146.316 277.135 145.527Q277.195 145.225 277.085 144.956Q276.969 144.677 276.646 144.354Z" fill-rule="evenodd" fill="#02CCCC"/>
	</g>
	<g clip-path="url(#clip736_5590)">
		<path d="M186 142.5L184.5 142.5L184.5 139Q184.5 138.288 184.225 137.638Q183.959 137.009 183.475 136.525Q182.991 136.041 182.363 135.775Q181.712 135.5 181 135.5L179 135.5Q178.288 135.5 177.637 135.775Q177.009 136.041 176.525 136.525Q176.041 137.009 175.775 137.638Q175.5 138.288 175.5 139L175.5 142.5L174 142.5Q173.492 142.5 173.027 142.697Q172.578 142.886 172.232 143.232Q171.886 143.578 171.697 144.027Q171.5 144.492 171.5 145L171.5 151Q171.5 151.508 171.697 151.973Q171.886 152.422 172.232 152.768Q172.578 153.114 173.027 153.303Q173.492 153.5 174 153.5L186 153.5Q186.508 153.5 186.973 153.303Q187.422 153.114 187.768 152.768Q188.114 152.422 188.303 151.973Q188.5 151.508 188.5 151L188.5 145Q188.5 144.492 188.303 144.027Q188.114 143.578 187.768 143.232Q187.422 142.886 186.973 142.697Q186.508 142.5 186 142.5ZM183.5 142.5L176.5 142.5L176.5 139Q176.5 138.491 176.696 138.027Q176.886 137.578 177.232 137.232Q177.578 136.886 178.027 136.696Q178.491 136.5 179 136.5L181 136.5Q181.509 136.5 181.973 136.696Q182.422 136.886 182.768 137.232Q183.114 137.578 183.304 138.027Q183.5 138.491 183.5 139L183.5 142.5ZM176 143.5L174 143.5Q173.694 143.5 173.416 143.618Q173.147 143.732 172.939 143.939Q172.731 144.147 172.618 144.416Q172.5 144.695 172.5 145L172.5 151Q172.5 151.305 172.618 151.584Q172.731 151.853 172.939 152.061Q173.147 152.268 173.416 152.382Q173.694 152.5 174 152.5L186 152.5Q186.306 152.5 186.584 152.382Q186.853 152.268 187.061 152.061Q187.269 151.853 187.382 151.584Q187.5 151.305 187.5 151L187.5 145Q187.5 144.695 187.382 144.416Q187.269 144.147 187.061 143.939Q186.853 143.732 186.584 143.618Q186.306 143.5 186 143.5L176 143.5ZM179.5 147C179.5 146.72 179.72 146.5 180 146.5C180.28 146.5 180.5 146.72 180.5 147L180.5 149C180.5 149.28 180.28 149.5 180 149.5C179.72 149.5 179.5 149.28 179.5 149L179.5 147Z" fill-rule="evenodd" fill="#02CCCC"/>
	</g>
	<g clip-path="url(#clip736_5592)">
		<path d="M234 142.5L224.5 142.5L224.5 139Q224.5 138.491 224.696 138.027Q224.886 137.578 225.232 137.232Q225.578 136.886 226.027 136.696Q226.491 136.5 227 136.5L229 136.5Q229.509 136.5 229.973 136.696Q230.422 136.886 230.768 137.232Q231.114 137.578 231.304 138.027Q231.5 138.491 231.5 139C231.5 139.28 231.72 139.5 232 139.5C232.28 139.5 232.5 139.28 232.5 139Q232.5 138.288 232.225 137.638Q231.959 137.009 231.475 136.525Q230.991 136.041 230.363 135.775Q229.712 135.5 229 135.5L227 135.5Q226.288 135.5 225.637 135.775Q225.009 136.041 224.525 136.525Q224.041 137.009 223.775 137.638Q223.5 138.288 223.5 139L223.5 142.5L222 142.5Q221.492 142.5 221.027 142.697Q220.578 142.886 220.232 143.232Q219.886 143.578 219.697 144.027Q219.5 144.492 219.5 145L219.5 151Q219.5 151.508 219.697 151.973Q219.886 152.422 220.232 152.768Q220.578 153.114 221.027 153.303Q221.492 153.5 222 153.5L234 153.5Q234.508 153.5 234.973 153.303Q235.422 153.114 235.768 152.768Q236.114 152.422 236.303 151.973Q236.5 151.508 236.5 151L236.5 145Q236.5 144.492 236.303 144.027Q236.114 143.578 235.768 143.232Q235.422 142.886 234.973 142.697Q234.508 142.5 234 142.5ZM224 143.5L234 143.5Q234.306 143.5 234.584 143.618Q234.853 143.732 235.061 143.939Q235.269 144.147 235.382 144.416Q235.5 144.695 235.5 145L235.5 151Q235.5 151.305 235.382 151.584Q235.269 151.853 235.061 152.061Q234.853 152.268 234.584 152.382Q234.306 152.5 234 152.5L222 152.5Q221.694 152.5 221.416 152.382Q221.147 152.268 220.939 152.061Q220.731 151.853 220.618 151.584Q220.5 151.305 220.5 151L220.5 145Q220.5 144.695 220.618 144.416Q220.731 144.147 220.939 143.939Q221.147 143.732 221.416 143.618Q221.694 143.5 222 143.5L224 143.5ZM227.5 147C227.5 146.72 227.72 146.5 228 146.5C228.28 146.5 228.5 146.72 228.5 147L228.5 149C228.5 149.28 228.28 149.5 228 149.5C227.72 149.5 227.5 149.28 227.5 149L227.5 147Z" fill-rule="evenodd" fill="#02CCCC"/>
	</g>
	<g clip-path="url(#clip736_5594)">
		<path d="M375 103C375 104.657 373.657 106 372 106C370.343 106 369 104.657 369 103M375 103L381.5 103L378.009 98.0155C378.003 98.0054 378 97.9938 378 97.9819L378 94C378 90.6863 375.314 88 372 88C368.686 88 366 90.6863 366 94L366 97.9819C366 97.9938 365.997 98.0054 365.991 98.0155L363 103L369 103L375 103Z" stroke="#02CCCC" stroke-linejoin="round" stroke-linecap="round"/>
	</g>
	<g clip-path="url(#clip736_5596)">
		<path d="M328.75 140.5L325.5 140.5L325.5 137.07Q325.5 136.751 325.42 136.451Q325.336 136.135 325.173 135.875Q324.993 135.589 324.735 135.4Q324.453 135.194 324.107 135.123Q323.486 134.997 322.894 135.105Q321.774 135.309 321.368 136.937Q321.134 137.878 320.516 139.099Q320.13 139.862 319.685 140.566Q319.613 140.68 319.506 140.787L318.197 142.096Q318.135 142.014 318.061 141.939Q317.853 141.732 317.584 141.618Q317.305 141.5 317 141.5L316 141.5Q315.695 141.5 315.416 141.618Q315.147 141.732 314.939 141.939Q314.732 142.147 314.618 142.416Q314.5 142.695 314.5 143L314.5 151Q314.5 151.305 314.618 151.584Q314.732 151.853 314.939 152.061Q315.147 152.268 315.416 152.382Q315.695 152.5 316 152.5L317 152.5Q317.305 152.5 317.584 152.382Q317.853 152.268 318.061 152.061Q318.22 151.901 318.324 151.705L321.633 153.262Q322.138 153.5 322.697 153.5L325.5 153.5L327.764 153.5Q328.474 153.5 329.078 153.127Q329.682 152.753 330 152.118L333.116 145.885Q333.317 145.485 333.365 145.04Q333.414 144.595 333.306 144.161L332.864 142.394Q332.761 141.982 332.529 141.628Q332.302 141.284 331.977 141.03Q331.651 140.775 331.262 140.639Q330.863 140.5 330.438 140.5L328.75 140.5ZM318.5 150.683L318.5 143.207L320.214 141.494Q320.398 141.309 320.53 141.101Q321.001 140.356 321.408 139.551Q322.077 138.229 322.339 137.178Q322.588 136.177 323.073 136.089Q323.475 136.015 323.908 136.103Q324.168 136.156 324.326 136.407Q324.5 136.683 324.5 137.07L324.5 140.5L324 140.5C323.72 140.5 323.5 140.72 323.5 141C323.5 141.28 323.72 141.5 324 141.5L325 141.5L328.75 141.5L330.438 141.5Q330.955 141.5 331.362 141.818Q331.768 142.135 331.894 142.636L332.335 144.404Q332.401 144.664 332.371 144.931Q332.342 145.198 332.222 145.438L329.106 151.671Q328.915 152.052 328.552 152.276Q328.19 152.5 327.764 152.5L325.5 152.5L322.697 152.5Q322.362 152.5 322.058 152.357L318.5 150.683ZM317.5 143Q317.5 142.793 317.354 142.646Q317.207 142.5 317 142.5L316 142.5Q315.793 142.5 315.646 142.646Q315.5 142.793 315.5 143L315.5 151Q315.5 151.207 315.646 151.354Q315.793 151.5 316 151.5L317 151.5Q317.207 151.5 317.354 151.354Q317.5 151.207 317.5 151L317.5 143Z" fill-rule="evenodd" fill="#02CCCC"/>
	</g>
	<g clip-path="url(#clip736_5598)">
		<path d="M367.25 149.5L370.5 149.5L370.5 152.93Q370.5 153.249 370.58 153.549Q370.664 153.865 370.827 154.125Q371.007 154.411 371.265 154.6Q371.547 154.807 371.893 154.877Q372.514 155.003 373.106 154.895Q374.226 154.691 374.632 153.063Q374.866 152.122 375.484 150.901Q375.87 150.138 376.315 149.434Q376.387 149.32 376.494 149.214L377.803 147.904Q377.865 147.986 377.939 148.061Q378.147 148.268 378.416 148.382Q378.695 148.5 379 148.5L380 148.5Q380.305 148.5 380.584 148.382Q380.853 148.268 381.061 148.061Q381.268 147.853 381.382 147.584Q381.5 147.305 381.5 147L381.5 139Q381.5 138.695 381.382 138.416Q381.268 138.147 381.061 137.939Q380.853 137.732 380.584 137.618Q380.305 137.5 380 137.5L379 137.5Q378.695 137.5 378.416 137.618Q378.147 137.732 377.939 137.939Q377.78 138.099 377.676 138.295L374.367 136.738Q373.862 136.5 373.303 136.5L370.5 136.5L368.236 136.5Q367.526 136.5 366.922 136.873Q366.318 137.247 366 137.882L362.884 144.115Q362.683 144.515 362.635 144.96Q362.586 145.405 362.694 145.839L363.136 147.606Q363.239 148.018 363.471 148.372Q363.698 148.716 364.023 148.971Q364.349 149.225 364.738 149.361Q365.137 149.5 365.562 149.5L367.25 149.5ZM377.5 139.317L377.5 146.793L375.786 148.506Q375.602 148.691 375.47 148.899Q374.999 149.644 374.592 150.449Q373.923 151.771 373.661 152.822Q373.412 153.823 372.927 153.911Q372.525 153.985 372.092 153.897Q371.832 153.844 371.674 153.593Q371.5 153.317 371.5 152.93L371.5 149.5L372 149.5C372.28 149.5 372.5 149.28 372.5 149C372.5 148.72 372.28 148.5 372 148.5L371 148.5L367.25 148.5L365.562 148.5Q365.045 148.5 364.638 148.182Q364.232 147.865 364.106 147.364L363.665 145.596Q363.599 145.336 363.629 145.069Q363.658 144.802 363.778 144.562L366.894 138.329Q367.085 137.948 367.448 137.724Q367.81 137.5 368.236 137.5L370.5 137.5L373.303 137.5Q373.638 137.5 373.942 137.643L377.5 139.317ZM378.5 147Q378.5 147.207 378.646 147.354Q378.793 147.5 379 147.5L380 147.5Q380.207 147.5 380.354 147.354Q380.5 147.207 380.5 147L380.5 139Q380.5 138.793 380.354 138.646Q380.207 138.5 380 138.5L379 138.5Q378.793 138.5 378.646 138.646Q378.5 138.793 378.5 139L378.5 147Z" fill-rule="evenodd" fill="#02CCCC"/>
	</g>
	<g clip-path="url(#clip736_5600)">
		<path d="M279 188.5L281 188.5Q281.915 188.5 282.752 188.854Q283.559 189.195 284.182 189.818Q284.805 190.441 285.146 191.248Q285.5 192.085 285.5 193Q285.5 193.915 285.146 194.752Q284.805 195.559 284.182 196.182Q283.559 196.805 282.752 197.146Q281.915 197.5 281 197.5L279 197.5C278.72 197.5 278.5 197.28 278.5 197C278.5 196.72 278.72 196.5 279 196.5L281 196.5Q281.712 196.5 282.362 196.225Q282.99 195.96 283.475 195.475Q283.959 194.99 284.225 194.362Q284.5 193.712 284.5 193Q284.5 192.288 284.225 191.638Q283.959 191.01 283.475 190.525Q282.99 190.04 282.362 189.775Q281.712 189.5 281 189.5L279 189.5C278.72 189.5 278.5 189.28 278.5 189C278.5 188.72 278.72 188.5 279 188.5ZM273 197.5L271 197.5Q270.085 197.5 269.248 197.146Q268.441 196.805 267.818 196.182Q267.195 195.559 266.854 194.752Q266.5 193.915 266.5 193Q266.5 192.085 266.854 191.248Q267.195 190.441 267.818 189.818Q268.441 189.195 269.248 188.854Q270.085 188.5 271 188.5L273 188.5C273.28 188.5 273.5 188.72 273.5 189C273.5 189.28 273.28 189.5 273 189.5L271 189.5Q270.288 189.5 269.638 189.775Q269.01 190.04 268.525 190.525Q268.041 191.01 267.775 191.638Q267.5 192.288 267.5 193Q267.5 193.712 267.775 194.362Q268.041 194.99 268.525 195.475Q269.01 195.96 269.638 196.225Q270.288 196.5 271 196.5L273 196.5C273.28 196.5 273.5 196.72 273.5 197C273.5 197.28 273.28 197.5 273 197.5ZM273 192.5L279 192.5C279.28 192.5 279.5 192.72 279.5 193C279.5 193.28 279.28 193.5 279 193.5L273 193.5C272.72 193.5 272.5 193.28 272.5 193C272.5 192.72 272.72 192.5 273 192.5Z" fill-rule="evenodd" fill="#02CCCC"/>
	</g>
	<g clip-path="url(#clip736_5602)">
		<path d="M374.854 188.854L368.854 194.854Q368.671 195.036 368.575 195.273Q368.482 195.502 368.482 195.75Q368.482 195.998 368.575 196.227Q368.671 196.464 368.854 196.646Q369.036 196.829 369.273 196.925Q369.501 197.018 369.75 197.018Q369.999 197.018 370.227 196.925Q370.464 196.829 370.646 196.646L377.146 190.146Q377.583 189.71 377.813 189.143Q378.036 188.594 378.036 188Q378.036 187.406 377.813 186.857Q377.583 186.29 377.146 185.854Q376.71 185.417 376.143 185.187Q375.594 184.964 375 184.964Q374.406 184.964 373.858 185.187Q373.291 185.417 372.854 185.854L365.854 192.854Q365.213 193.494 364.876 194.325Q364.55 195.129 364.55 196Q364.55 196.871 364.876 197.675Q365.213 198.506 365.854 199.146Q366.506 199.799 367.42 200.209Q368.323 200.614 369.295 200.701Q370.283 200.79 371.14 200.53Q372.033 200.259 372.646 199.646L377.646 194.646C377.844 194.448 378.156 194.448 378.354 194.646C378.552 194.844 378.552 195.156 378.354 195.354L373.354 200.354Q372.563 201.144 371.43 201.487Q370.387 201.803 369.206 201.697Q368.067 201.595 367.011 201.121Q365.929 200.636 365.146 199.854Q364.363 199.07 363.949 198.05Q363.55 197.066 363.55 196Q363.55 194.934 363.949 193.95Q364.363 192.93 365.146 192.146L372.146 185.146Q372.727 184.566 373.482 184.26Q374.21 183.964 375 183.964Q375.79 183.964 376.518 184.26Q377.273 184.566 377.854 185.146Q378.434 185.727 378.74 186.482Q379.036 187.21 379.036 188Q379.036 188.79 378.74 189.518Q378.434 190.273 377.854 190.854L371.354 197.354Q371.028 197.68 370.603 197.852Q370.193 198.018 369.75 198.018Q369.307 198.018 368.897 197.852Q368.472 197.68 368.146 197.354Q367.82 197.028 367.648 196.603Q367.482 196.194 367.482 195.75Q367.482 195.306 367.648 194.897Q367.82 194.472 368.146 194.146L374.146 188.146C374.344 187.948 374.656 187.948 374.854 188.146C375.052 188.344 375.052 188.656 374.854 188.854Z" fill-rule="evenodd" fill="#02CCCC"/>
	</g>
	<g clip-path="url(#clip736_5604)">
		<path d="M323.5 184C323.5 183.72 323.72 183.5 324 183.5C324.28 183.5 324.5 183.72 324.5 184L324.5 188C324.5 188.28 324.28 188.5 324 188.5C323.72 188.5 323.5 188.28 323.5 188L323.5 184ZM331.354 185.354L328.354 188.354C328.156 188.552 327.844 188.552 327.646 188.354C327.448 188.156 327.448 187.844 327.646 187.646L330.646 184.646C330.844 184.448 331.156 184.448 331.354 184.646C331.552 184.844 331.552 185.156 331.354 185.354ZM316.646 185.354C316.448 185.156 316.448 184.844 316.646 184.646C316.844 184.448 317.156 184.448 317.354 184.646L320.354 187.646C320.552 187.844 320.552 188.156 320.354 188.354C320.156 188.552 319.844 188.552 319.646 188.354L316.646 185.354ZM327 191.5L329 191.5Q329.915 191.5 330.752 191.854Q331.559 192.195 332.182 192.818Q332.805 193.441 333.146 194.248Q333.5 195.085 333.5 196Q333.5 196.915 333.146 197.752Q332.805 198.559 332.182 199.182Q331.559 199.805 330.752 200.146Q329.915 200.5 329 200.5L327 200.5C326.72 200.5 326.5 200.28 326.5 200C326.5 199.72 326.72 199.5 327 199.5L329 199.5Q329.712 199.5 330.362 199.225Q330.99 198.96 331.475 198.475Q331.959 197.99 332.225 197.362Q332.5 196.712 332.5 196Q332.5 195.288 332.225 194.638Q331.959 194.01 331.475 193.525Q330.99 193.04 330.362 192.775Q329.712 192.5 329 192.5L327 192.5C326.72 192.5 326.5 192.28 326.5 192C326.5 191.72 326.72 191.5 327 191.5ZM321 200.5L319 200.5Q318.085 200.5 317.248 200.146Q316.441 199.805 315.818 199.182Q315.195 198.559 314.854 197.752Q314.5 196.915 314.5 196Q314.5 195.085 314.854 194.248Q315.195 193.441 315.818 192.818Q316.441 192.195 317.248 191.854Q318.085 191.5 319 191.5L321 191.5C321.28 191.5 321.5 191.72 321.5 192C321.5 192.28 321.28 192.5 321 192.5L319 192.5Q318.288 192.5 317.638 192.775Q317.01 193.04 316.525 193.525Q316.041 194.01 315.775 194.638Q315.5 195.288 315.5 196Q315.5 196.712 315.775 197.362Q316.041 197.99 316.525 198.475Q317.01 198.96 317.638 199.225Q318.288 199.5 319 199.5L321 199.5C321.28 199.5 321.5 199.72 321.5 200C321.5 200.28 321.28 200.5 321 200.5ZM321 195.5L327 195.5C327.28 195.5 327.5 195.72 327.5 196C327.5 196.28 327.28 196.5 327 196.5L321 196.5C320.72 196.5 320.5 196.28 320.5 196C320.5 195.72 320.72 195.5 321 195.5Z" fill-rule="evenodd" fill="#02CCCC"/>
	</g>
	<g clip-path="url(#clip736_5606)">
		<path d="M132 250.5Q130.068 250.5 128.302 249.753Q126.597 249.032 125.282 247.718Q123.968 246.403 123.247 244.698Q122.5 242.932 122.5 241Q122.5 239.068 123.247 237.302Q123.968 235.597 125.282 234.282Q126.597 232.968 128.302 232.247Q130.068 231.5 132 231.5Q133.932 231.5 135.698 232.247Q137.403 232.968 138.718 234.282Q140.032 235.597 140.753 237.302Q141.5 239.068 141.5 241Q141.5 242.932 140.753 244.698Q140.032 246.403 138.718 247.718Q137.403 249.032 135.698 249.753Q133.932 250.5 132 250.5ZM132 249.5Q133.73 249.5 135.308 248.832Q136.834 248.187 138.01 247.01Q139.187 245.834 139.832 244.308Q140.5 242.73 140.5 241Q140.5 239.27 139.832 237.692Q139.187 236.166 138.01 234.99Q136.834 233.813 135.308 233.168Q133.73 232.5 132 232.5Q130.27 232.5 128.692 233.168Q127.166 233.813 125.99 234.99Q124.813 236.166 124.168 237.692Q123.5 239.27 123.5 241Q123.5 242.73 124.168 244.308Q124.813 245.834 125.99 247.01Q127.166 248.187 128.692 248.832Q130.27 249.5 132 249.5ZM134.61 238.688C134.784 238.469 135.094 238.435 135.312 238.61C135.531 238.784 135.565 239.094 135.39 239.312L131.39 244.312Q131.373 244.334 131.354 244.354Q131.319 244.388 131.278 244.416Q131.237 244.443 131.191 244.462Q131.146 244.481 131.098 244.49Q131.049 244.5 131 244.5Q130.951 244.5 130.902 244.49Q130.854 244.481 130.809 244.462Q130.763 244.443 130.722 244.416Q130.681 244.388 130.646 244.354L128.646 242.354C128.448 242.156 128.448 241.844 128.646 241.646C128.844 241.448 129.156 241.448 129.354 241.646L130.958 243.251L134.61 238.688Z" fill-rule="evenodd" fill="#02CCCC"/>
	</g>
	<g clip-path="url(#clip736_5608)">
		<path d="M228.348 231.641L230.397 233.623L233.22 233.224Q233.268 233.217 233.316 233.219Q233.364 233.222 233.411 233.234Q233.458 233.245 233.501 233.266Q233.545 233.286 233.584 233.314Q233.623 233.343 233.656 233.378Q233.689 233.413 233.714 233.454Q233.74 233.495 233.757 233.54Q233.774 233.585 233.782 233.632L234.275 236.441L236.794 237.777Q236.836 237.8 236.874 237.83Q236.911 237.86 236.942 237.897Q236.973 237.934 236.997 237.976Q237.02 238.018 237.035 238.064Q237.05 238.11 237.056 238.158Q237.062 238.206 237.058 238.254Q237.055 238.302 237.042 238.349Q237.03 238.395 237.009 238.438L235.756 241L237.009 243.562Q237.03 243.605 237.042 243.651Q237.055 243.698 237.058 243.746Q237.062 243.794 237.056 243.842Q237.05 243.89 237.035 243.936Q237.02 243.982 236.997 244.024Q236.973 244.066 236.942 244.103Q236.911 244.14 236.874 244.17Q236.836 244.2 236.794 244.223L234.275 245.559L233.782 248.368Q233.774 248.415 233.757 248.46Q233.74 248.505 233.714 248.546Q233.689 248.587 233.656 248.622Q233.623 248.657 233.584 248.686Q233.545 248.714 233.501 248.734Q233.458 248.755 233.411 248.766Q233.364 248.778 233.316 248.78Q233.268 248.783 233.22 248.776L230.397 248.377L228.348 250.359Q228.313 250.393 228.272 250.419Q228.232 250.445 228.187 250.464Q228.143 250.482 228.095 250.491Q228.048 250.5 228 250.5Q227.952 250.5 227.904 250.491Q227.857 250.482 227.812 250.464Q227.768 250.445 227.727 250.419Q227.687 250.393 227.652 250.359L225.603 248.377L222.78 248.776Q222.732 248.783 222.684 248.78Q222.636 248.778 222.589 248.766Q222.542 248.755 222.499 248.734Q222.455 248.714 222.416 248.686Q222.377 248.657 222.344 248.622Q222.311 248.587 222.286 248.546Q222.26 248.505 222.243 248.46Q222.226 248.415 222.217 248.368L221.725 245.559L219.206 244.223Q219.163 244.2 219.126 244.17Q219.088 244.14 219.057 244.103Q219.027 244.066 219.003 244.024Q218.98 243.981 218.965 243.936Q218.95 243.89 218.944 243.842Q218.938 243.794 218.942 243.746Q218.945 243.698 218.958 243.651Q218.97 243.605 218.991 243.562L220.243 241L218.991 238.438Q218.97 238.395 218.958 238.349Q218.945 238.302 218.942 238.254Q218.938 238.206 218.944 238.158Q218.95 238.11 218.965 238.064Q218.98 238.018 219.003 237.976Q219.027 237.934 219.057 237.897Q219.088 237.86 219.126 237.83Q219.163 237.8 219.206 237.777L221.725 236.441L222.217 233.632Q222.226 233.585 222.243 233.54Q222.26 233.495 222.286 233.454Q222.311 233.413 222.344 233.378Q222.377 233.343 222.416 233.314Q222.455 233.286 222.499 233.266Q222.542 233.245 222.589 233.234Q222.636 233.222 222.684 233.219Q222.732 233.217 222.78 233.224L225.603 233.623L227.652 231.641Q227.687 231.607 227.727 231.581Q227.768 231.555 227.812 231.536Q227.857 231.518 227.904 231.509Q227.952 231.5 228 231.5Q228.048 231.5 228.095 231.509Q228.143 231.518 228.187 231.536Q228.232 231.555 228.272 231.581Q228.313 231.607 228.348 231.641ZM230.295 234.647Q230.18 234.664 230.07 234.628Q229.96 234.592 229.877 234.512L228 232.696L226.123 234.512Q226.04 234.592 225.93 234.628Q225.82 234.664 225.705 234.647L223.119 234.282L222.667 236.854Q222.647 236.968 222.579 237.062Q222.511 237.155 222.409 237.21L220.102 238.434L221.249 240.78Q221.3 240.884 221.3 241Q221.3 241.116 221.249 241.22L220.102 243.566L222.409 244.79Q222.511 244.845 222.579 244.938Q222.647 245.032 222.667 245.146L223.119 247.718L225.705 247.353Q225.82 247.336 225.93 247.372Q226.04 247.408 226.123 247.488L228 249.304L229.877 247.488Q229.96 247.408 230.07 247.372Q230.18 247.336 230.295 247.353L232.881 247.718L233.332 245.146Q233.352 245.032 233.42 244.938Q233.488 244.845 233.591 244.79L235.898 243.566L234.751 241.22Q234.7 241.116 234.7 241Q234.7 240.884 234.751 240.78L235.898 238.434L233.591 237.21Q233.488 237.155 233.42 237.062Q233.352 236.968 233.332 236.854L232.881 234.282L230.295 234.647ZM230.609 238.688C230.784 238.469 231.094 238.435 231.312 238.61C231.531 238.784 231.565 239.094 231.39 239.312L227.39 244.312Q227.373 244.334 227.354 244.354Q227.319 244.388 227.278 244.416Q227.237 244.443 227.191 244.462Q227.146 244.481 227.097 244.49Q227.049 244.5 227 244.5Q226.951 244.5 226.902 244.49Q226.854 244.481 226.809 244.462Q226.763 244.443 226.722 244.416Q226.681 244.388 226.646 244.354L224.646 242.354C224.448 242.156 224.448 241.844 224.646 241.646C224.844 241.448 225.156 241.448 225.354 241.646L226.958 243.251L230.609 238.688Z" fill-rule="evenodd" fill="#02CCCC"/>
	</g>
	<g clip-path="url(#clip736_5610)">
		<path d="M281 233C282.657 233 284 234.343 284 236L284 241L276 249L271 249C269.343 249 268 247.657 268 246L268 236C268 234.343 269.343 233 271 233L281 233ZM284 241L279 241C277.343 241 276 242.343 276 244L276 249" stroke="#02CCCC" stroke-linejoin="round" stroke-linecap="round"/>
	</g>
	<g clip-path="url(#clip736_5612)">
		<path d="M323.027 236.303Q323.258 236.401 323.5 236.45L323.5 237.5L320 237.5Q319.492 237.5 319.027 237.697Q318.578 237.886 318.232 238.232Q317.886 238.578 317.697 239.027Q317.5 239.492 317.5 240L317.5 248Q317.5 248.508 317.697 248.973Q317.886 249.422 318.232 249.768Q318.578 250.114 319.027 250.303Q319.492 250.5 320 250.5L328 250.5Q328.508 250.5 328.973 250.303Q329.422 250.114 329.768 249.768Q330.114 249.422 330.303 248.973Q330.5 248.508 330.5 248L330.5 240Q330.5 239.492 330.303 239.027Q330.114 238.578 329.768 238.232Q329.422 237.886 328.973 237.697Q328.508 237.5 328 237.5L324.5 237.5L324.5 236.45Q324.742 236.401 324.973 236.303Q325.422 236.114 325.768 235.768Q326.114 235.422 326.303 234.973Q326.5 234.508 326.5 234Q326.5 233.492 326.303 233.027Q326.114 232.578 325.768 232.232Q325.422 231.886 324.973 231.697Q324.508 231.5 324 231.5Q323.492 231.5 323.027 231.697Q322.578 231.886 322.232 232.232Q321.886 232.578 321.697 233.027Q321.5 233.492 321.5 234Q321.5 234.508 321.697 234.973Q321.886 235.422 322.232 235.768Q322.578 236.114 323.027 236.303ZM324 235.5Q324.306 235.5 324.584 235.382Q324.853 235.268 325.061 235.061Q325.269 234.853 325.382 234.584Q325.5 234.305 325.5 234Q325.5 233.695 325.382 233.416Q325.269 233.147 325.061 232.939Q324.853 232.732 324.584 232.618Q324.306 232.5 324 232.5Q323.694 232.5 323.416 232.618Q323.147 232.732 322.939 232.939Q322.731 233.147 322.618 233.416Q322.5 233.695 322.5 234Q322.5 234.305 322.618 234.584Q322.731 234.853 322.939 235.061Q323.147 235.268 323.416 235.382Q323.694 235.5 324 235.5ZM320 238.5L323.5 238.5L323.5 240.5C323.5 240.78 323.72 241 324 241C324.28 241 324.5 240.78 324.5 240.5L324.5 238.5L328 238.5Q328.306 238.5 328.584 238.618Q328.853 238.732 329.061 238.939Q329.269 239.147 329.382 239.416Q329.5 239.695 329.5 240L329.5 248Q329.5 248.305 329.382 248.584Q329.269 248.853 329.061 249.061Q328.853 249.268 328.584 249.382Q328.306 249.5 328 249.5L320 249.5Q319.694 249.5 319.416 249.382Q319.147 249.268 318.939 249.061Q318.731 248.853 318.618 248.584Q318.5 248.305 318.5 248L318.5 240Q318.5 239.695 318.618 239.416Q318.731 239.147 318.939 238.939Q319.147 238.732 319.416 238.618Q319.694 238.5 320 238.5Z" fill-rule="evenodd" fill="#02CCCC"/>
	</g>
	<g clip-path="url(#clip736_5614)">
		<path d="M180 250.5Q178.068 250.5 176.302 249.753Q174.597 249.032 173.282 247.718Q171.968 246.403 171.247 244.698Q170.5 242.932 170.5 241Q170.5 239.068 171.247 237.302Q171.968 235.597 173.282 234.282Q174.597 232.968 176.302 232.247Q178.068 231.5 180 231.5Q181.932 231.5 183.698 232.247Q185.403 232.968 186.718 234.282Q188.032 235.597 188.753 237.302Q189.5 239.068 189.5 241Q189.5 242.932 188.753 244.698Q188.032 246.403 186.718 247.718Q185.403 249.032 183.698 249.753Q181.932 250.5 180 250.5ZM180 249.5Q181.73 249.5 183.308 248.832Q184.834 248.187 186.01 247.01Q187.187 245.834 187.832 244.308Q188.5 242.73 188.5 241Q188.5 239.27 187.832 237.692Q187.187 236.166 186.01 234.99Q184.834 233.813 183.308 233.168Q181.73 232.5 180 232.5Q178.27 232.5 176.692 233.168Q175.166 233.813 173.99 234.99Q172.813 236.166 172.168 237.692Q171.5 239.27 171.5 241Q171.5 242.73 172.168 244.308Q172.813 245.834 173.99 247.01Q175.166 248.187 176.692 248.832Q178.27 249.5 180 249.5ZM176.646 238.354C176.448 238.156 176.448 237.844 176.646 237.646C176.844 237.448 177.156 237.448 177.354 237.646L180 240.293L182.646 237.646C182.844 237.448 183.156 237.448 183.354 237.646C183.552 237.844 183.552 238.156 183.354 238.354L180.707 241L183.354 243.646C183.552 243.844 183.552 244.156 183.354 244.354C183.156 244.552 182.844 244.552 182.646 244.354L180 241.707L177.354 244.354C177.156 244.552 176.844 244.552 176.646 244.354C176.448 244.156 176.448 243.844 176.646 243.646L179.293 241L176.646 238.354Z" fill-rule="evenodd" fill="#02CCCC"/>
	</g>
	<g clip-path="url(#clip736_5616)">
		<path d="M91 243.5L87.2072 243.5L92.3535 248.646C92.5515 248.844 92.5515 249.156 92.3535 249.354C92.1555 249.552 91.8445 249.552 91.6465 249.354L85.7928 243.5L84.5 243.5L84.5 250Q84.5 250.049 84.4904 250.098Q84.4808 250.146 84.4619 250.191Q84.4431 250.237 84.4157 250.278Q84.3884 250.319 84.3535 250.354Q84.3187 250.388 84.2778 250.416Q84.2368 250.443 84.1913 250.462Q84.1458 250.481 84.0975 250.49Q84.0492 250.5 84 250.5Q83.9369 250.5 83.8758 250.484Q83.8147 250.469 83.7594 250.438Q83.7041 250.408 83.6581 250.365Q83.612 250.322 83.5781 250.268L76.5781 239.268Q76.5517 239.227 76.5339 239.181Q76.516 239.135 76.5075 239.087Q76.499 239.038 76.5001 238.989Q76.5012 238.94 76.5119 238.892Q76.5226 238.843 76.5424 238.798Q76.5623 238.753 76.5905 238.713Q76.6188 238.673 76.6544 238.639Q76.69 238.605 76.7316 238.578Q76.8544 238.5 77 238.5L80.7928 238.5L75.6465 233.354C75.4485 233.156 75.4485 232.844 75.6465 232.646C75.8445 232.448 76.1555 232.448 76.3535 232.646L82.2072 238.5L83.5 238.5L83.5 232Q83.5 231.951 83.5096 231.902Q83.5192 231.854 83.5381 231.809Q83.5569 231.763 83.5843 231.722Q83.6116 231.681 83.6464 231.646Q83.6813 231.612 83.7222 231.584Q83.7632 231.557 83.8087 231.538Q83.8542 231.519 83.9025 231.51Q83.9508 231.5 84 231.5Q84.0631 231.5 84.1242 231.516Q84.1853 231.531 84.2406 231.562Q84.2959 231.592 84.3419 231.635Q84.388 231.678 84.4219 231.732L91.4219 242.732Q91.4483 242.773 91.4661 242.819Q91.4839 242.865 91.4925 242.913Q91.501 242.962 91.4999 243.011Q91.4988 243.06 91.4881 243.108Q91.4774 243.156 91.4576 243.202Q91.4377 243.247 91.4094 243.287Q91.3812 243.327 91.3456 243.361Q91.31 243.395 91.2684 243.422Q91.1456 243.5 91 243.5ZM90.0891 242.5L86.2072 242.5L83.2072 239.5L84 239.5Q84.0492 239.5 84.0975 239.49Q84.1458 239.481 84.1913 239.462Q84.2368 239.443 84.2778 239.416Q84.3187 239.388 84.3535 239.354Q84.3884 239.319 84.4157 239.278Q84.4431 239.237 84.4619 239.191Q84.4808 239.146 84.4904 239.098Q84.5 239.049 84.5 239L84.5 233.717L90.0891 242.5ZM81.7928 239.5L84.7928 242.5L84 242.5Q83.9508 242.5 83.9025 242.51Q83.8542 242.519 83.8087 242.538Q83.7632 242.557 83.7222 242.584Q83.6813 242.612 83.6464 242.646Q83.6116 242.681 83.5843 242.722Q83.5569 242.763 83.5381 242.809Q83.5192 242.854 83.5096 242.902Q83.5 242.951 83.5 243L83.5 248.283L77.9109 239.5L81.7928 239.5Z" fill-rule="evenodd" fill="#02CCCC"/>
	</g>
	<g clip-path="url(#clip736_5618)">
		<path d="M43 243L36 243L36 250L29 239L36 239L36 232L43 243Z" stroke="#02CCCC" stroke-linejoin="round" stroke-linecap="round"/>
	</g>
	<g clip-path="url(#clip736_5620)">
		<path d="M126.5 280C126.5 279.72 126.72 279.5 127 279.5C127.28 279.5 127.5 279.72 127.5 280L127.5 296.793L130.646 293.646C130.844 293.448 131.156 293.448 131.354 293.646C131.552 293.844 131.552 294.156 131.354 294.354L127.354 298.354Q127.283 298.424 127.191 298.462Q127.099 298.5 127 298.5Q126.901 298.5 126.809 298.462Q126.717 298.424 126.646 298.354L122.646 294.354C122.448 294.156 122.448 293.844 122.646 293.646C122.844 293.448 123.156 293.448 123.354 293.646L126.5 296.793L126.5 280ZM139.5 287L139.5 285.5L135.5 285.5L135.5 287C135.5 287.28 135.28 287.5 135 287.5C134.72 287.5 134.5 287.28 134.5 287L134.5 283.5Q134.5 282.89 134.736 282.332Q134.964 281.794 135.379 281.379Q135.794 280.964 136.332 280.736Q136.89 280.5 137.5 280.5Q138.11 280.5 138.668 280.736Q139.206 280.964 139.621 281.379Q140.036 281.794 140.264 282.332Q140.5 282.89 140.5 283.5L140.5 287C140.5 287.28 140.28 287.5 140 287.5C139.72 287.5 139.5 287.28 139.5 287ZM139.5 283.5L139.5 284.5L135.5 284.5L135.5 283.5Q135.5 283.093 135.657 282.722Q135.809 282.363 136.086 282.086Q136.363 281.809 136.722 281.657Q137.093 281.5 137.5 281.5Q137.907 281.5 138.278 281.657Q138.637 281.809 138.914 282.086Q139.191 282.363 139.343 282.722Q139.5 283.093 139.5 283.5ZM135 290.5L140 290.5Q140.049 290.5 140.098 290.51Q140.146 290.519 140.191 290.538Q140.237 290.557 140.278 290.584Q140.319 290.612 140.354 290.646Q140.388 290.681 140.416 290.722Q140.443 290.763 140.462 290.809Q140.481 290.854 140.49 290.902Q140.5 290.951 140.5 291Q140.5 291.181 140.384 291.32L136.068 296.5L140 296.5C140.28 296.5 140.5 296.72 140.5 297C140.5 297.28 140.28 297.5 140 297.5L135 297.5Q134.819 297.5 134.68 297.384Q134.642 297.353 134.611 297.314Q134.58 297.276 134.557 297.232Q134.534 297.189 134.52 297.142Q134.506 297.094 134.502 297.045Q134.498 296.996 134.503 296.947Q134.508 296.898 134.523 296.851Q134.537 296.804 134.561 296.761Q134.584 296.718 134.616 296.68L138.932 291.5L135 291.5C134.72 291.5 134.5 291.28 134.5 291C134.5 290.72 134.72 290.5 135 290.5Z" fill-rule="evenodd" fill="#02CCCC"/>
	</g>
	<g clip-path="url(#clip736_5622)">
		<path d="M174.5 280C174.5 279.72 174.72 279.5 175 279.5C175.28 279.5 175.5 279.72 175.5 280L175.5 296.793L178.646 293.646C178.844 293.448 179.156 293.448 179.354 293.646C179.552 293.844 179.552 294.156 179.354 294.354L175.354 298.354Q175.283 298.424 175.191 298.462Q175.099 298.5 175 298.5Q174.901 298.5 174.809 298.462Q174.717 298.424 174.646 298.354L170.646 294.354C170.448 294.156 170.448 293.844 170.646 293.646C170.844 293.448 171.156 293.448 171.354 293.646L174.5 296.793L174.5 280ZM183 280.5L188 280.5Q188.049 280.5 188.098 280.51Q188.146 280.519 188.191 280.538Q188.237 280.557 188.278 280.584Q188.319 280.612 188.354 280.646Q188.388 280.681 188.416 280.722Q188.443 280.763 188.462 280.809Q188.481 280.854 188.49 280.902Q188.5 280.951 188.5 281Q188.5 281.181 188.384 281.32L184.068 286.5L188 286.5C188.28 286.5 188.5 286.72 188.5 287C188.5 287.28 188.28 287.5 188 287.5L183 287.5Q182.819 287.5 182.68 287.384Q182.642 287.353 182.611 287.314Q182.58 287.276 182.557 287.232Q182.534 287.189 182.52 287.141Q182.506 287.094 182.502 287.045Q182.498 286.996 182.503 286.947Q182.508 286.898 182.523 286.851Q182.537 286.804 182.561 286.761Q182.584 286.718 182.616 286.68L186.932 281.5L183 281.5C182.72 281.5 182.5 281.28 182.5 281C182.5 280.72 182.72 280.5 183 280.5ZM182.5 295L182.5 293.5Q182.5 292.89 182.736 292.332Q182.964 291.794 183.379 291.379Q183.794 290.964 184.332 290.736Q184.89 290.5 185.5 290.5Q186.11 290.5 186.668 290.736Q187.206 290.964 187.621 291.379Q188.036 291.794 188.264 292.332Q188.5 292.89 188.5 293.5L188.5 297C188.5 297.28 188.28 297.5 188 297.5C187.72 297.5 187.5 297.28 187.5 297L187.5 295.5L183.5 295.5L183.5 297C183.5 297.28 183.28 297.5 183 297.5C182.72 297.5 182.5 297.28 182.5 297L182.5 295ZM187.5 293.5L187.5 294.5L183.5 294.5L183.5 293.5Q183.5 293.093 183.657 292.722Q183.809 292.363 184.086 292.086Q184.363 291.809 184.722 291.657Q185.093 291.5 185.5 291.5Q185.907 291.5 186.278 291.657Q186.637 291.809 186.914 292.086Q187.191 292.363 187.343 292.722Q187.5 293.093 187.5 293.5Z" fill-rule="evenodd" fill="#02CCCC"/>
	</g>
	<g clip-path="url(#clip736_5624)">
		<path d="M222.5 280C222.5 279.72 222.72 279.5 223 279.5C223.28 279.5 223.5 279.72 223.5 280L223.5 296.793L226.646 293.646C226.844 293.448 227.156 293.448 227.354 293.646C227.552 293.844 227.552 294.156 227.354 294.354L223.354 298.354Q223.283 298.424 223.191 298.462Q223.099 298.5 223 298.5Q222.901 298.5 222.809 298.462Q222.717 298.424 222.646 298.354L218.646 294.354C218.448 294.156 218.448 293.844 218.646 293.646C218.844 293.448 219.156 293.448 219.354 293.646L222.5 296.793L222.5 280ZM231.646 282.646L233.646 280.646Q233.681 280.612 233.722 280.584Q233.763 280.557 233.809 280.538Q233.854 280.519 233.902 280.51Q233.951 280.5 234 280.5Q234.049 280.5 234.097 280.51Q234.146 280.519 234.191 280.538Q234.237 280.557 234.278 280.584Q234.319 280.612 234.354 280.646Q234.424 280.717 234.462 280.809Q234.5 280.901 234.5 281L234.5 287C234.5 287.28 234.28 287.5 234 287.5C233.72 287.5 233.5 287.28 233.5 287L233.5 282.207L232.354 283.354C232.156 283.552 231.844 283.552 231.646 283.354C231.448 283.156 231.448 282.844 231.646 282.646ZM235 290.5Q235.049 290.5 235.098 290.51Q235.146 290.519 235.191 290.538Q235.237 290.557 235.278 290.584Q235.319 290.612 235.354 290.646Q235.388 290.681 235.416 290.722Q235.443 290.763 235.462 290.809Q235.481 290.854 235.49 290.902Q235.5 290.951 235.5 291L235.5 297Q235.5 297.049 235.49 297.098Q235.481 297.146 235.462 297.191Q235.443 297.237 235.416 297.278Q235.388 297.319 235.354 297.354Q235.319 297.388 235.278 297.416Q235.237 297.443 235.191 297.462Q235.146 297.481 235.098 297.49Q235.049 297.5 235 297.5L232 297.5L232 296.5L234.5 296.5L234.5 294.5L232 294.5L232 293.5L234.5 293.5L234.5 291.5L232 291.5L232 290.5L235 290.5Z" fill-rule="evenodd" fill="#02CCCC"/>
	</g>
	<g clip-path="url(#clip736_5626)">
		<path d="M42 286C40.8256 286 39.8087 285.325 39.3162 284.342C39.1139 283.938 39 283.482 39 283C39 281.343 40.3431 280 42 280C43.6569 280 45 281.343 45 283C45 284.657 43.6569 286 42 286ZM42 298C40.3431 298 39 296.657 39 295C39 294.518 39.1139 294.062 39.3162 293.658C39.8087 292.675 40.8256 292 42 292C43.6569 292 45 293.343 45 295C45 296.657 43.6569 298 42 298ZM27 289C27 287.343 28.3431 286 30 286C31.1744 286 32.1913 286.675 32.6838 287.658C32.8861 288.062 33 288.518 33 289C33 289.482 32.8861 289.938 32.6838 290.342C32.1913 291.325 31.1744 292 30 292C28.3431 292 27 290.657 27 289ZM39.3162 293.658L32.6838 290.342M32.6838 287.658L39.3162 284.342" stroke="#02CCCC" stroke-linejoin="round" stroke-linecap="round"/>
	</g>
	<g clip-path="url(#clip736_5628)">
		<path d="M270.5 280C270.5 279.72 270.72 279.5 271 279.5C271.28 279.5 271.5 279.72 271.5 280L271.5 296.793L274.646 293.646C274.844 293.448 275.156 293.448 275.354 293.646C275.552 293.844 275.552 294.156 275.354 294.354L271.354 298.354Q271.283 298.424 271.191 298.462Q271.099 298.5 271 298.5Q270.901 298.5 270.809 298.462Q270.717 298.424 270.646 298.354L266.646 294.354C266.448 294.156 266.448 293.844 266.646 293.646C266.844 293.448 267.156 293.448 267.354 293.646L270.5 296.793L270.5 280ZM280 280.5L283 280.5Q283.049 280.5 283.098 280.51Q283.146 280.519 283.191 280.538Q283.237 280.557 283.278 280.584Q283.319 280.612 283.354 280.646Q283.388 280.681 283.416 280.722Q283.443 280.763 283.462 280.809Q283.481 280.854 283.49 280.902Q283.5 280.951 283.5 281L283.5 287Q283.5 287.049 283.49 287.098Q283.481 287.146 283.462 287.191Q283.443 287.237 283.416 287.278Q283.388 287.319 283.354 287.354Q283.319 287.388 283.278 287.416Q283.237 287.443 283.191 287.462Q283.146 287.481 283.098 287.49Q283.049 287.5 283 287.5L280 287.5L280 286.5L282.5 286.5L282.5 284.5L280 284.5L280 283.5L282.5 283.5L282.5 281.5L280 281.5L280 280.5ZM279.646 292.646L281.646 290.646Q281.681 290.612 281.722 290.584Q281.763 290.557 281.809 290.538Q281.854 290.519 281.902 290.51Q281.951 290.5 282 290.5Q282.049 290.5 282.098 290.51Q282.146 290.519 282.191 290.538Q282.237 290.557 282.278 290.584Q282.319 290.612 282.354 290.646Q282.424 290.717 282.462 290.809Q282.5 290.901 282.5 291L282.5 297C282.5 297.28 282.28 297.5 282 297.5C281.72 297.5 281.5 297.28 281.5 297L281.5 292.207L280.354 293.354C280.156 293.552 279.844 293.552 279.646 293.354C279.448 293.156 279.448 292.844 279.646 292.646Z" fill-rule="evenodd" fill="#02CCCC"/>
	</g>
	<g clip-path="url(#clip736_5630)">
		<path d="M80 288.5Q79.2882 288.5 78.6375 288.225Q78.0093 287.959 77.5251 287.475Q77.041 286.991 76.7753 286.362Q76.5981 285.944 76.535 285.5L75 285.5C74.72 285.5 74.5 285.28 74.5 285C74.5 284.72 74.72 284.5 75 284.5L76.535 284.5Q76.5981 284.056 76.7753 283.638Q77.041 283.009 77.5251 282.525Q78.0093 282.041 78.6375 281.775Q79.2882 281.5 80 281.5Q80.7118 281.5 81.3625 281.775Q81.9907 282.041 82.4749 282.525Q82.9591 283.009 83.2247 283.638Q83.4019 284.056 83.465 284.5L93 284.5C93.28 284.5 93.5 284.72 93.5 285C93.5 285.28 93.28 285.5 93 285.5L83.465 285.5Q83.4019 285.944 83.2247 286.362Q82.9591 286.991 82.4749 287.475Q81.9907 287.959 81.3625 288.225Q80.7118 288.5 80 288.5ZM80 287.5Q80.5089 287.5 80.9729 287.304Q81.4215 287.114 81.7678 286.768Q82.114 286.422 82.3037 285.973Q82.5 285.509 82.5 285Q82.5 284.491 82.3037 284.027Q82.114 283.578 81.7678 283.232Q81.4215 282.886 80.9729 282.696Q80.5089 282.5 80 282.5Q79.4911 282.5 79.0271 282.696Q78.5785 282.886 78.2322 283.232Q77.886 283.578 77.6963 284.027Q77.5 284.491 77.5 285Q77.5 285.509 77.6963 285.973Q77.886 286.422 78.2322 286.768Q78.5785 287.114 79.0271 287.304Q79.4911 287.5 80 287.5ZM88 289.5Q88.7118 289.5 89.3625 289.775Q89.9907 290.041 90.4749 290.525Q90.959 291.009 91.2247 291.638Q91.4019 292.056 91.465 292.5L93 292.5C93.28 292.5 93.5 292.72 93.5 293C93.5 293.28 93.28 293.5 93 293.5L91.465 293.5Q91.4019 293.944 91.2247 294.362Q90.959 294.991 90.4749 295.475Q89.9907 295.959 89.3625 296.225Q88.7118 296.5 88 296.5Q87.2882 296.5 86.6375 296.225Q86.0093 295.959 85.5251 295.475Q85.041 294.991 84.7753 294.362Q84.5981 293.944 84.535 293.5L75 293.5C74.72 293.5 74.5 293.28 74.5 293C74.5 292.72 74.72 292.5 75 292.5L84.535 292.5Q84.5981 292.056 84.7753 291.638Q85.0409 291.009 85.5251 290.525Q86.0093 290.041 86.6375 289.775Q87.2882 289.5 88 289.5ZM88 290.5Q87.4911 290.5 87.0271 290.696Q86.5785 290.886 86.2322 291.232Q85.886 291.578 85.6963 292.027Q85.5 292.491 85.5 293Q85.5 293.509 85.6963 293.973Q85.886 294.422 86.2322 294.768Q86.5785 295.114 87.0271 295.304Q87.4911 295.5 88 295.5Q88.5089 295.5 88.9729 295.304Q89.4215 295.114 89.7678 294.768Q90.114 294.422 90.3037 293.973Q90.5 293.509 90.5 293Q90.5 292.491 90.3037 292.027Q90.114 291.578 89.7678 291.232Q89.4215 290.886 88.9729 290.696Q88.5089 290.5 88 290.5Z" fill-rule="evenodd" fill="#02CCCC"/>
	</g>
	<g clip-path="url(#clip736_5632)">
		<path d="M318.5 280C318.5 279.72 318.72 279.5 319 279.5C319.28 279.5 319.5 279.72 319.5 280L319.5 296.793L322.646 293.646C322.844 293.448 323.156 293.448 323.354 293.646C323.552 293.844 323.552 294.156 323.354 294.354L319.354 298.354Q319.283 298.424 319.191 298.462Q319.099 298.5 319 298.5Q318.901 298.5 318.809 298.462Q318.717 298.424 318.646 298.354L314.646 294.354C314.448 294.156 314.448 293.844 314.646 293.646C314.844 293.448 315.156 293.448 315.354 293.646L318.5 296.793L318.5 280ZM327 281.5L333 281.5C333.28 281.5 333.5 281.72 333.5 282C333.5 282.28 333.28 282.5 333 282.5L327 282.5C326.72 282.5 326.5 282.28 326.5 282C326.5 281.72 326.72 281.5 327 281.5ZM327 285.5L331 285.5C331.28 285.5 331.5 285.72 331.5 286C331.5 286.28 331.28 286.5 331 286.5L327 286.5C326.72 286.5 326.5 286.28 326.5 286C326.5 285.72 326.72 285.5 327 285.5ZM327 289.5L329 289.5C329.28 289.5 329.5 289.72 329.5 290C329.5 290.28 329.28 290.5 329 290.5L327 290.5C326.72 290.5 326.5 290.28 326.5 290C326.5 289.72 326.72 289.5 327 289.5Z" fill-rule="evenodd" fill="#02CCCC"/>
	</g>
	<g clip-path="url(#clip736_5634)">
		<path d="M366.5 280C366.5 279.72 366.72 279.5 367 279.5C367.28 279.5 367.5 279.72 367.5 280L367.5 296.793L370.646 293.646C370.844 293.448 371.156 293.448 371.354 293.646C371.552 293.844 371.552 294.156 371.354 294.354L367.354 298.354Q367.283 298.424 367.191 298.462Q367.099 298.5 367 298.5Q366.901 298.5 366.809 298.462Q366.717 298.424 366.646 298.354L362.646 294.354C362.448 294.156 362.448 293.844 362.646 293.646C362.844 293.448 363.156 293.448 363.354 293.646L366.5 296.793L366.5 280ZM375 281.5L377 281.5C377.28 281.5 377.5 281.72 377.5 282C377.5 282.28 377.28 282.5 377 282.5L375 282.5C374.72 282.5 374.5 282.28 374.5 282C374.5 281.72 374.72 281.5 375 281.5ZM375 285.5L379 285.5C379.28 285.5 379.5 285.72 379.5 286C379.5 286.28 379.28 286.5 379 286.5L375 286.5C374.72 286.5 374.5 286.28 374.5 286C374.5 285.72 374.72 285.5 375 285.5ZM375 289.5L381 289.5C381.28 289.5 381.5 289.72 381.5 290C381.5 290.28 381.28 290.5 381 290.5L375 290.5C374.72 290.5 374.5 290.28 374.5 290C374.5 289.72 374.72 289.5 375 289.5Z" fill-rule="evenodd" fill="#02CCCC"/>
	</g>
	<g clip-path="url(#clip736_5636)">
		<path d="M27.5 334L27.5 331Q27.5 330.492 27.6967 330.027Q27.8865 329.578 28.2322 329.232Q28.578 328.886 29.0267 328.697Q29.4917 328.5 30 328.5L33 328.5C33.28 328.5 33.5 328.72 33.5 329C33.5 329.28 33.28 329.5 33 329.5L30 329.5Q29.6945 329.5 29.4163 329.618Q29.1472 329.731 28.9393 329.939Q28.7314 330.147 28.6177 330.416Q28.5 330.694 28.5 331L28.5 334C28.5 334.28 28.28 334.5 28 334.5C27.72 334.5 27.5 334.28 27.5 334ZM39 328.5L42 328.5Q42.5083 328.5 42.9733 328.697Q43.422 328.886 43.7678 329.232Q44.1135 329.578 44.3033 330.027Q44.5 330.492 44.5 331L44.5 334C44.5 334.28 44.28 334.5 44 334.5C43.72 334.5 43.5 334.28 43.5 334L43.5 331Q43.5 330.694 43.3823 330.416Q43.2686 330.147 43.0607 329.939Q42.8528 329.732 42.5837 329.618Q42.3055 329.5 42 329.5L39 329.5C38.72 329.5 38.5 329.28 38.5 329C38.5 328.72 38.72 328.5 39 328.5ZM31 337.5C30.7201 337.5 30.5 337.28 30.5 337C30.5 336.72 30.7201 336.5 31 336.5L41 336.5C41.28 336.5 41.5 336.72 41.5 337C41.5 337.28 41.28 337.5 41 337.5L31 337.5ZM27.5 340C27.5 339.72 27.72 339.5 28 339.5C28.28 339.5 28.5 339.72 28.5 340L28.5 343Q28.5 343.306 28.6177 343.584Q28.7314 343.853 28.9393 344.061Q29.1472 344.269 29.4163 344.382Q29.6945 344.5 30 344.5L33 344.5C33.28 344.5 33.5 344.72 33.5 345C33.5 345.28 33.28 345.5 33 345.5L30 345.5Q29.4917 345.5 29.0267 345.303Q28.578 345.114 28.2322 344.768Q27.8865 344.422 27.6967 343.973Q27.5 343.508 27.5 343L27.5 340ZM43.5 340C43.5 339.72 43.72 339.5 44 339.5C44.28 339.5 44.5 339.72 44.5 340L44.5 343Q44.5 343.508 44.3033 343.973Q44.1135 344.422 43.7678 344.768Q43.422 345.114 42.9733 345.303Q42.5083 345.5 42 345.5L39 345.5C38.72 345.5 38.5 345.28 38.5 345C38.5 344.72 38.72 344.5 39 344.5L42 344.5Q42.3055 344.5 42.5837 344.382Q42.8528 344.269 43.0607 344.061Q43.2686 343.853 43.3823 343.584Q43.5 343.306 43.5 343L43.5 340Z" fill-rule="evenodd" fill="#02CCCC"/>
	</g>
	<g clip-path="url(#clip736_5638)">
		<path d="M92 343C92 344.105 91.1046 345 90 345L88 345L80 345L78 345C76.8954 345 76 344.105 76 343L76 331C76 329.895 76.8954 329 78 329L81 329L87 329L91.4142 333.414C91.7893 333.789 92 334.298 92 334.828L92 343ZM81 329L81 331C81 332.105 81.8954 333 83 333L85 333C86.1046 333 87 332.105 87 331L87 329M80 345L80 342C80 340.895 80.8954 340 82 340L86 340C87.1046 340 88 340.895 88 342L88 345" stroke="#02CCCC" stroke-linejoin="round" stroke-linecap="round"/>
	</g>
	<g clip-path="url(#clip736_5640)">
		<path d="M228 346.5Q226.068 346.5 224.302 345.753Q222.597 345.032 221.282 343.718Q219.968 342.403 219.247 340.698Q218.5 338.932 218.5 337Q218.5 335.068 219.247 333.302Q219.968 331.597 221.282 330.282Q222.597 328.968 224.302 328.247Q226.068 327.5 228 327.5Q229.932 327.5 231.698 328.247Q233.403 328.968 234.718 330.282Q236.032 331.597 236.753 333.302Q237.5 335.068 237.5 337Q237.5 338.932 236.753 340.698Q236.032 342.403 234.718 343.718Q233.403 345.032 231.698 345.753Q229.932 346.5 228 346.5ZM228 345.5Q229.73 345.5 231.308 344.832Q232.834 344.187 234.01 343.01Q235.187 341.834 235.832 340.308Q236.5 338.73 236.5 337Q236.5 335.27 235.832 333.692Q235.187 332.166 234.01 330.99Q232.834 329.813 231.308 329.168Q229.73 328.5 228 328.5Q226.27 328.5 224.692 329.168Q223.166 329.813 221.99 330.99Q220.813 332.166 220.168 333.692Q219.5 335.27 219.5 337Q219.5 338.73 220.168 340.308Q220.813 341.834 221.99 343.01Q223.166 344.187 224.692 344.832Q226.27 345.5 228 345.5ZM227.5 332C227.5 331.72 227.72 331.5 228 331.5C228.28 331.5 228.5 331.72 228.5 332L228.5 338C228.5 338.28 228.28 338.5 228 338.5C227.72 338.5 227.5 338.28 227.5 338L227.5 332ZM228.009 342.5L228 342.5C227.72 342.5 227.5 342.28 227.5 342C227.5 341.72 227.72 341.5 228 341.5L228.009 341.5C228.289 341.5 228.509 341.72 228.509 342C228.509 342.28 228.289 342.5 228.009 342.5Z" fill-rule="evenodd" fill="#02CCCC"/>
	</g>
	<g clip-path="url(#clip736_5642)">
		<path d="M173.399 346.5Q172.706 346.5 172.123 346.153Q171.573 345.826 171.244 345.268Q170.916 344.71 170.897 344.07Q170.877 343.391 171.214 342.786L177.815 330.904Q178.16 330.282 178.767 329.94Q179.337 329.618 180 329.618Q180.663 329.618 181.233 329.94Q181.84 330.282 182.185 330.904L188.786 342.786Q189.123 343.391 189.103 344.07Q189.084 344.71 188.756 345.268Q188.427 345.826 187.877 346.153Q187.294 346.5 186.601 346.5L173.399 346.5ZM186.601 345.5Q187.019 345.5 187.366 345.293Q187.696 345.097 187.894 344.761Q188.092 344.424 188.103 344.041Q188.115 343.637 187.912 343.272L181.311 331.39Q181.103 331.014 180.742 330.811Q180.4 330.618 180 330.618Q179.6 330.618 179.258 330.811Q178.897 331.014 178.689 331.39L172.088 343.272Q171.885 343.637 171.897 344.041Q171.908 344.424 172.106 344.761Q172.304 345.097 172.634 345.293Q172.981 345.5 173.399 345.5L186.601 345.5ZM179.5 335C179.5 334.72 179.72 334.5 180 334.5C180.28 334.5 180.5 334.72 180.5 335L180.5 339C180.5 339.28 180.28 339.5 180 339.5C179.72 339.5 179.5 339.28 179.5 339L179.5 335ZM180.009 343.5L180 343.5C179.72 343.5 179.5 343.28 179.5 343C179.5 342.72 179.72 342.5 180 342.5L180.009 342.5C180.289 342.5 180.509 342.72 180.509 343C180.509 343.28 180.289 343.5 180.009 343.5Z" fill-rule="evenodd" fill="#02CCCC"/>
	</g>
	<g clip-path="url(#clip736_5644)">
		<path d="M332 343C332 344.105 331.105 345 330 345L322 345C320.895 345 320 344.105 320 343L320 341L320 335C320 333.895 320.895 333 322 333L328 333L330 333C331.105 333 332 333.895 332 335L332 343ZM320 341L318 341C316.895 341 316 340.105 316 339L316 331C316 329.895 316.895 329 318 329L326 329C327.105 329 328 329.895 328 331L328 333" stroke="#02CCCC" stroke-linejoin="round" stroke-linecap="round"/>
	</g>
	<g clip-path="url(#clip736_5646)">
		<path d="M276 346.5Q274.068 346.5 272.302 345.753Q270.597 345.032 269.282 343.718Q267.968 342.403 267.247 340.698Q266.5 338.932 266.5 337Q266.5 335.068 267.247 333.302Q267.968 331.597 269.282 330.282Q270.597 328.968 272.302 328.247Q274.068 327.5 276 327.5Q277.932 327.5 279.698 328.247Q281.403 328.968 282.718 330.282Q284.032 331.597 284.753 333.302Q285.5 335.068 285.5 337Q285.5 338.932 284.753 340.698Q284.032 342.403 282.718 343.718Q281.403 345.032 279.698 345.753Q277.932 346.5 276 346.5ZM276 345.5Q277.73 345.5 279.308 344.832Q280.834 344.187 282.01 343.01Q283.187 341.834 283.832 340.308Q284.5 338.73 284.5 337Q284.5 335.27 283.832 333.692Q283.187 332.166 282.01 330.99Q280.834 329.813 279.308 329.168Q277.73 328.5 276 328.5Q274.27 328.5 272.692 329.168Q271.166 329.813 269.99 330.99Q268.813 332.166 268.168 333.692Q267.5 335.27 267.5 337Q267.5 338.73 268.168 340.308Q268.813 341.834 269.99 343.01Q271.166 344.187 272.692 344.832Q274.27 345.5 276 345.5ZM276 331.5L276.009 331.5C276.289 331.5 276.509 331.72 276.509 332C276.509 332.28 276.289 332.5 276.009 332.5L276 332.5C275.72 332.5 275.5 332.28 275.5 332C275.5 331.72 275.72 331.5 276 331.5ZM275 336.5C274.72 336.5 274.5 336.28 274.5 336C274.5 335.72 274.72 335.5 275 335.5L276 335.5Q276.049 335.5 276.098 335.51Q276.146 335.519 276.191 335.538Q276.237 335.557 276.278 335.584Q276.319 335.612 276.354 335.646Q276.388 335.681 276.416 335.722Q276.443 335.763 276.462 335.809Q276.481 335.854 276.49 335.902Q276.5 335.951 276.5 336L276.5 342C276.5 342.28 276.28 342.5 276 342.5C275.72 342.5 275.5 342.28 275.5 342L275.5 336.5L275 336.5Z" fill-rule="evenodd" fill="#02CCCC"/>
	</g>
	<g clip-path="url(#clip736_5648)">
		<path d="M369 334L366.5 334C365.119 334 364 332.881 364 331.5C364 330.119 365.119 329 366.5 329C367.881 329 369 330.119 369 331.5L369 334L369 340L369 342.5C369 343.881 367.881 345 366.5 345C365.119 345 364 343.881 364 342.5C364 341.119 365.119 340 366.5 340L369 340M369 340L375 340L377.5 340C378.881 340 380 341.119 380 342.5C380 343.881 378.881 345 377.5 345C376.119 345 375 343.881 375 342.5L375 340M375 340L375 334L375 331.5C375 330.119 376.119 329 377.5 329C378.881 329 380 330.119 380 331.5C380 332.881 378.881 334 377.5 334L375 334M375 334L369 334" stroke="#02CCCC" stroke-linejoin="round" stroke-linecap="round"/>
	</g>
	<g clip-path="url(#clip736_5650)">
		<path d="M80 388.5Q78.9004 388.5 77.8936 388.159Q76.9128 387.827 76.1521 387.219Q75.379 386.6 74.9509 385.791Q74.5 384.938 74.5 384Q74.5 383.167 74.8582 382.396Q75.1992 381.662 75.8268 381.065Q76.4401 380.481 77.2544 380.098Q77.9259 379.782 78.6715 379.632Q78.8641 378.877 79.2655 378.199Q79.7462 377.388 80.4705 376.782Q81.2006 376.17 82.0897 375.841Q83.0103 375.5 84 375.5Q84.9897 375.5 85.9103 375.841Q86.7994 376.17 87.5295 376.782Q88.2538 377.388 88.7345 378.199Q89.1359 378.877 89.3285 379.632Q90.0741 379.782 90.7456 380.098Q91.5599 380.481 92.1732 381.065Q92.8008 381.662 93.1418 382.396Q93.5 383.167 93.5 384Q93.5 384.938 93.0491 385.791Q92.621 386.6 91.8479 387.219Q91.0872 387.827 90.1064 388.159Q89.0996 388.5 88 388.5C87.72 388.5 87.5 388.28 87.5 388C87.5 387.72 87.72 387.5 88 387.5Q88.9349 387.5 89.786 387.212Q90.5999 386.937 91.2231 386.438Q91.8341 385.949 92.165 385.323Q92.5 384.69 92.5 384Q92.5 383.388 92.235 382.818Q91.9739 382.256 91.4839 381.789Q90.9878 381.317 90.3196 381.003Q89.6294 380.678 88.84 380.561Q88.7628 380.55 88.6928 380.515Q88.6228 380.481 88.5666 380.427Q88.5104 380.373 88.4733 380.305Q88.4362 380.236 88.4218 380.159Q88.2759 379.387 87.8743 378.709Q87.4806 378.045 86.8875 377.548Q86.29 377.048 85.5629 376.779Q84.8105 376.5 84 376.5Q83.1895 376.5 82.4371 376.779Q81.71 377.048 81.1125 377.548Q80.5194 378.045 80.1257 378.709Q79.7241 379.387 79.5782 380.159Q79.5638 380.236 79.5267 380.304Q79.4896 380.373 79.4334 380.427Q79.3771 380.481 79.3072 380.515Q79.2372 380.55 79.16 380.561Q78.3706 380.678 77.6804 381.003Q77.0122 381.317 76.5161 381.789Q76.0261 382.256 75.765 382.818Q75.5 383.388 75.5 384Q75.5 384.69 75.835 385.323Q76.1659 385.949 76.7769 386.438Q77.4001 386.937 78.214 387.212Q79.0651 387.5 80 387.5C80.28 387.5 80.5 387.72 80.5 388C80.5 388.28 80.28 388.5 80 388.5ZM83.5 382C83.5 381.72 83.72 381.5 84 381.5C84.28 381.5 84.5 381.72 84.5 382L84.5 392.858L86.6609 390.863C86.8666 390.673 87.1775 390.686 87.3674 390.892C87.5574 391.097 87.5449 391.408 87.3391 391.598L84.3391 394.367Q84.3048 394.399 84.2652 394.424Q84.2256 394.449 84.1821 394.466Q84.1385 394.483 84.0926 394.491Q84.0467 394.5 84 394.5Q83.9533 394.5 83.9074 394.491Q83.8615 394.483 83.8179 394.466Q83.7744 394.449 83.7348 394.424Q83.6952 394.399 83.6609 394.367L80.6609 391.598C80.4551 391.408 80.4426 391.097 80.6326 390.892C80.8225 390.686 81.1334 390.673 81.3391 390.863L83.5 392.858L83.5 382Z" fill-rule="evenodd" fill="#02CCCC"/>
	</g>
	<g clip-path="url(#clip736_5652)">
		<path d="M32 388.5Q30.9004 388.5 29.8936 388.159Q28.9128 387.827 28.1521 387.219Q27.379 386.6 26.9509 385.791Q26.5 384.938 26.5 384Q26.5 383.167 26.8582 382.396Q27.1992 381.662 27.8268 381.065Q28.4401 380.481 29.2544 380.098Q29.9259 379.782 30.6715 379.632Q30.8641 378.877 31.2655 378.199Q31.7462 377.388 32.4705 376.782Q33.2006 376.17 34.0897 375.841Q35.0103 375.5 36 375.5Q36.9897 375.5 37.9103 375.841Q38.7994 376.17 39.5295 376.782Q40.2538 377.388 40.7345 378.199Q41.1359 378.877 41.3285 379.632Q42.0741 379.782 42.7456 380.098Q43.5599 380.481 44.1732 381.065Q44.8008 381.662 45.1418 382.396Q45.5 383.167 45.5 384Q45.5 384.938 45.0491 385.791Q44.621 386.6 43.8479 387.219Q43.0872 387.827 42.1064 388.159Q41.0996 388.5 40 388.5C39.72 388.5 39.5 388.28 39.5 388C39.5 387.72 39.72 387.5 40 387.5Q40.9349 387.5 41.786 387.212Q42.5999 386.937 43.2231 386.438Q43.8341 385.949 44.165 385.323Q44.5 384.69 44.5 384Q44.5 383.388 44.235 382.818Q43.9739 382.256 43.4839 381.789Q42.9878 381.317 42.3196 381.003Q41.6294 380.678 40.84 380.561Q40.7628 380.55 40.6928 380.515Q40.6229 380.481 40.5666 380.427Q40.5104 380.373 40.4733 380.305Q40.4362 380.236 40.4218 380.159Q40.2759 379.387 39.8743 378.709Q39.4806 378.045 38.8875 377.548Q38.29 377.048 37.5629 376.779Q36.8105 376.5 36 376.5Q35.1895 376.5 34.4371 376.779Q33.71 377.048 33.1125 377.548Q32.5194 378.045 32.1257 378.709Q31.7241 379.387 31.5782 380.159Q31.5638 380.236 31.5267 380.304Q31.4896 380.373 31.4334 380.427Q31.3771 380.481 31.3071 380.515Q31.2372 380.55 31.16 380.561Q30.3706 380.678 29.6804 381.003Q29.0122 381.317 28.5161 381.789Q28.0261 382.256 27.765 382.818Q27.5 383.388 27.5 384Q27.5 384.69 27.835 385.323Q28.1659 385.949 28.7769 386.438Q29.4001 386.937 30.214 387.212Q31.0651 387.5 32 387.5C32.28 387.5 32.5 387.72 32.5 388C32.5 388.28 32.28 388.5 32 388.5ZM38.6609 385.137L36.5 383.142L36.5 394C36.5 394.28 36.28 394.5 36 394.5C35.72 394.5 35.5 394.28 35.5 394L35.5 383.142L33.3391 385.137C33.1334 385.327 32.8225 385.314 32.6326 385.108C32.4426 384.903 32.4551 384.592 32.6609 384.402L35.6609 381.633Q35.6952 381.601 35.7348 381.576Q35.7744 381.551 35.8179 381.534Q35.8615 381.517 35.9074 381.509Q35.9533 381.5 36 381.5Q36.0467 381.5 36.0926 381.509Q36.1385 381.517 36.1821 381.534Q36.2256 381.551 36.2652 381.576Q36.3048 381.601 36.3391 381.633L39.3391 384.402C39.5449 384.592 39.5574 384.903 39.3674 385.108C39.1775 385.314 38.8666 385.327 38.6609 385.137Z" fill-rule="evenodd" fill="#02CCCC"/>
	</g>
	<g clip-path="url(#clip736_5654)">
		<path d="M131.569 328C130.702 328 130 328.702 130 329.569C130 329.997 129.716 330.367 129.321 330.531C128.925 330.695 128.462 330.634 128.16 330.331C127.424 329.596 126.232 329.596 125.497 330.331L125.055 330.774C124.472 331.356 124.472 332.301 125.055 332.883L125.331 333.16C125.634 333.462 125.695 333.925 125.531 334.321C125.367 334.716 124.997 335 124.569 335C123.702 335 123 335.702 123 336.569L123 337.688C123 338.413 123.587 339 124.312 339L124.72 339C125.058 339 125.352 339.224 125.475 339.539C125.593 339.842 125.537 340.191 125.307 340.42C124.585 341.143 124.585 342.313 125.307 343.035L125.954 343.682C126.437 344.165 127.22 344.165 127.703 343.682L127.747 343.637C128.123 343.261 128.704 343.2 129.191 343.414C129.659 343.619 130 344.061 130 344.572C130 345.361 130.639 346 131.427 346L132.688 346C133.413 346 134 345.413 134 344.688L134 344.431C134 344.003 134.284 343.633 134.679 343.469C135.075 343.305 135.538 343.366 135.84 343.669C136.331 344.159 137.125 344.159 137.615 343.669L138.756 342.528C139.198 342.086 139.198 341.37 138.756 340.927L138.669 340.84C138.366 340.538 138.305 340.075 138.469 339.679C138.633 339.284 139.003 339 139.431 339C140.298 339 141 338.298 141 337.431L141 336.312C141 335.587 140.413 335 139.688 335L139.573 335C139.061 335 138.619 334.659 138.414 334.191C138.2 333.704 138.261 333.123 138.637 332.747C139.145 332.24 139.145 331.417 138.637 330.909L137.717 329.989C137.171 329.443 136.285 329.443 135.739 329.989L135.421 330.307C135.191 330.537 134.842 330.593 134.539 330.475C134.224 330.352 134 330.058 134 329.72C134 328.77 133.23 328 132.28 328L131.569 328ZM132 340C130.343 340 129 338.657 129 337C129 335.343 130.343 334 132 334C133.657 334 135 335.343 135 337C135 338.657 133.657 340 132 340Z" stroke="#02CCCC" stroke-linejoin="round"/>
	</g>
	<defs>
		<clipPath id="clip736_5556">
			<rect width="24.000000" height="24.000000" transform="translate(24.000000 133.000000)" fill="white"/>
		</clipPath>
		<clipPath id="clip736_5558">
			<rect width="24.000000" height="24.000000" transform="translate(120.000000 133.000000)" fill="white"/>
		</clipPath>
		<clipPath id="clip736_5560">
			<rect width="24.000000" height="24.000000" transform="translate(72.000000 133.000000)" fill="white"/>
		</clipPath>
		<clipPath id="clip736_5562">
			<rect width="24.000000" height="24.000000" transform="translate(264.000000 85.000000)" fill="white"/>
		</clipPath>
		<clipPath id="clip736_5564">
			<rect width="24.000000" height="24.000000" transform="translate(312.000000 85.000000)" fill="white"/>
		</clipPath>
		<clipPath id="clip736_5566">
			<rect width="24.000000" height="24.000000" transform="translate(216.000000 85.000000)" fill="white"/>
		</clipPath>
		<clipPath id="clip736_5568">
			<rect width="24.000000" height="24.000000" transform="translate(120.000000 85.000000)" fill="white"/>
		</clipPath>
		<clipPath id="clip736_5570">
			<rect width="24.000000" height="24.000000" transform="translate(168.000000 85.000000)" fill="white"/>
		</clipPath>
		<clipPath id="clip736_5572">
			<rect width="24.000000" height="24.000000" transform="translate(360.000000 229.000000)" fill="white"/>
		</clipPath>
		<clipPath id="clip736_5574">
			<rect width="24.000000" height="24.000000" transform="translate(24.000000 181.000000)" fill="white"/>
		</clipPath>
		<clipPath id="clip736_5576">
			<rect width="24.000000" height="24.000000" transform="translate(72.000000 181.000000)" fill="white"/>
		</clipPath>
		<clipPath id="clip736_5578">
			<rect width="24.000000" height="24.000000" transform="translate(120.000000 181.000000)" fill="white"/>
		</clipPath>
		<clipPath id="clip736_5580">
			<rect width="24.000000" height="24.000000" transform="translate(168.000000 181.000000)" fill="white"/>
		</clipPath>
		<clipPath id="clip736_5582">
			<rect width="24.000000" height="24.000000" transform="translate(216.000000 181.000000)" fill="white"/>
		</clipPath>
		<clipPath id="clip736_5584">
			<rect width="24.000000" height="24.000000" transform="translate(24.000000 85.000000)" fill="white"/>
		</clipPath>
		<clipPath id="clip736_5586">
			<rect width="24.000000" height="24.000000" transform="translate(72.000000 85.000000)" fill="white"/>
		</clipPath>
		<clipPath id="clip736_5588">
			<rect width="24.000000" height="24.000000" transform="translate(264.000000 133.000000)" fill="white"/>
		</clipPath>
		<clipPath id="clip736_5590">
			<rect width="24.000000" height="24.000000" transform="translate(168.000000 133.000000)" fill="white"/>
		</clipPath>
		<clipPath id="clip736_5592">
			<rect width="24.000000" height="24.000000" transform="translate(216.000000 133.000000)" fill="white"/>
		</clipPath>
		<clipPath id="clip736_5594">
			<rect width="24.000000" height="24.000000" transform="translate(360.000000 85.000000)" fill="white"/>
		</clipPath>
		<clipPath id="clip736_5596">
			<rect width="24.000000" height="24.000000" transform="translate(312.000000 133.000000)" fill="white"/>
		</clipPath>
		<clipPath id="clip736_5598">
			<rect width="24.000000" height="24.000000" transform="translate(360.000000 133.000000)" fill="white"/>
		</clipPath>
		<clipPath id="clip736_5600">
			<rect width="24.000000" height="24.000000" transform="translate(264.000000 181.000000)" fill="white"/>
		</clipPath>
		<clipPath id="clip736_5602">
			<rect width="24.000000" height="24.000000" transform="translate(360.000000 181.000000)" fill="white"/>
		</clipPath>
		<clipPath id="clip736_5604">
			<rect width="24.000000" height="24.000000" transform="translate(312.000000 181.000000)" fill="white"/>
		</clipPath>
		<clipPath id="clip736_5606">
			<rect width="24.000000" height="24.000000" transform="translate(120.000000 229.000000)" fill="white"/>
		</clipPath>
		<clipPath id="clip736_5608">
			<rect width="24.000000" height="24.000000" transform="translate(216.000000 229.000000)" fill="white"/>
		</clipPath>
		<clipPath id="clip736_5610">
			<rect width="24.000000" height="24.000000" transform="translate(264.000000 229.000000)" fill="white"/>
		</clipPath>
		<clipPath id="clip736_5612">
			<rect width="24.000000" height="24.000000" transform="translate(312.000000 229.000000)" fill="white"/>
		</clipPath>
		<clipPath id="clip736_5614">
			<rect width="24.000000" height="24.000000" transform="translate(168.000000 229.000000)" fill="white"/>
		</clipPath>
		<clipPath id="clip736_5616">
			<rect width="24.000000" height="24.000000" transform="translate(72.000000 229.000000)" fill="white"/>
		</clipPath>
		<clipPath id="clip736_5618">
			<rect width="24.000000" height="24.000000" transform="translate(24.000000 229.000000)" fill="white"/>
		</clipPath>
		<clipPath id="clip736_5620">
			<rect width="24.000000" height="24.000000" transform="translate(120.000000 277.000000)" fill="white"/>
		</clipPath>
		<clipPath id="clip736_5622">
			<rect width="24.000000" height="24.000000" transform="translate(168.000000 277.000000)" fill="white"/>
		</clipPath>
		<clipPath id="clip736_5624">
			<rect width="24.000000" height="24.000000" transform="translate(216.000000 277.000000)" fill="white"/>
		</clipPath>
		<clipPath id="clip736_5626">
			<rect width="24.000000" height="24.000000" transform="translate(24.000000 277.000000)" fill="white"/>
		</clipPath>
		<clipPath id="clip736_5628">
			<rect width="24.000000" height="24.000000" transform="translate(264.000000 277.000000)" fill="white"/>
		</clipPath>
		<clipPath id="clip736_5630">
			<rect width="24.000000" height="24.000000" transform="translate(72.000000 277.000000)" fill="white"/>
		</clipPath>
		<clipPath id="clip736_5632">
			<rect width="24.000000" height="24.000000" transform="translate(312.000000 277.000000)" fill="white"/>
		</clipPath>
		<clipPath id="clip736_5634">
			<rect width="24.000000" height="24.000000" transform="translate(360.000000 277.000000)" fill="white"/>
		</clipPath>
		<clipPath id="clip736_5636">
			<rect width="24.000000" height="24.000000" transform="translate(24.000000 325.000000)" fill="white"/>
		</clipPath>
		<clipPath id="clip736_5638">
			<rect width="24.000000" height="24.000000" transform="translate(72.000000 325.000000)" fill="white"/>
		</clipPath>
		<clipPath id="clip736_5640">
			<rect width="24.000000" height="24.000000" transform="translate(216.000000 325.000000)" fill="white"/>
		</clipPath>
		<clipPath id="clip736_5642">
			<rect width="24.000000" height="24.000000" transform="translate(168.000000 325.000000)" fill="white"/>
		</clipPath>
		<clipPath id="clip736_5644">
			<rect width="24.000000" height="24.000000" transform="translate(312.000000 325.000000)" fill="white"/>
		</clipPath>
		<clipPath id="clip736_5646">
			<rect width="24.000000" height="24.000000" transform="translate(264.000000 325.000000)" fill="white"/>
		</clipPath>
		<clipPath id="clip736_5648">
			<rect width="24.000000" height="24.000000" transform="translate(360.000000 325.000000)" fill="white"/>
		</clipPath>
		<clipPath id="clip736_5650">
			<rect width="24.000000" height="24.000000" transform="translate(72.000000 373.000000)" fill="white"/>
		</clipPath>
		<clipPath id="clip736_5652">
			<rect width="24.000000" height="24.000000" transform="translate(24.000000 373.000000)" fill="white"/>
		</clipPath>
		<clipPath id="clip736_5654">
			<rect width="24.000000" height="24.000000" transform="translate(120.000000 325.000000)" fill="white"/>
		</clipPath>
	</defs>
</svg>
