<svg width="48.000000" height="48.000000" viewBox="0 0 48 48" fill="none" xmlns="http://www.w3.org/2000/svg" xmlns:xlink="http://www.w3.org/1999/xlink">
	<desc>
			Created with Pixso.
	</desc>
	<g opacity="0.500000">
		<rect rx="8.000000" width="48.000000" height="48.000000" fill="#F0A48E"/>
		<path d="M22.2866 20.4629C22.2866 20.043 22.6167 19.7129 23.0366 19.7129C23.4565 19.7129 23.7866 20.043 23.7866 20.4629L23.7866 27.6113C23.7866 28.0312 23.4565 28.3613 23.0366 28.3613C22.6167 28.3613 22.2866 28.0312 22.2866 27.6113L22.2866 20.4629Z" fill-rule="evenodd" fill="#FFFFFF"/>
		<path d="M26.6143 23.2871C27.0342 23.2871 27.3643 23.6172 27.3643 24.0371C27.3643 24.459 27.0342 24.7871 26.6143 24.7871L19.4585 24.7871C19.0386 24.7871 18.7085 24.459 18.7085 24.0371C18.7085 23.6172 19.0386 23.2871 19.4585 23.2871L26.6143 23.2871Z" fill-rule="evenodd" fill="#FFFFFF"/>
		<path d="M32.7734 24.0371C32.7734 31.3398 30.3389 33.7754 23.0366 33.7754C15.7344 33.7754 13.2998 31.3398 13.2998 24.0371C13.2998 16.7363 15.7344 14.3008 23.0366 14.3008C30.3389 14.3008 32.7734 16.7363 32.7734 24.0371Z" stroke="#FFFFFF" stroke-width="1.500000" stroke-linejoin="round" stroke-linecap="round" stroke-dasharray="0 0"/>
	</g>
	<defs/>
</svg>
