<svg width="254.000122" height="273.773010" viewBox="0 0 254 273.773" fill="none" xmlns="http://www.w3.org/2000/svg" xmlns:xlink="http://www.w3.org/1999/xlink">
	<desc>
			Created with Pixso.
	</desc>
	<g opacity="0.500000">
		<g filter="url(#filter_5_891_dd)">
			<ellipse cx="123.500000" cy="230.500000" rx="92.500000" ry="21.500000" fill="#FFEBE6"/>
		</g>
		<path d="M239.402 132.701C239.402 196.049 188.049 247.402 124.701 247.402C61.3534 247.402 10 196.049 10 132.701C10 69.3534 61.3534 18 124.701 18C188.049 18 239.402 69.3534 239.402 132.701Z" fill-rule="evenodd" fill="url(#paint_linear_5_892_0)"/>
		<path d="M181.577 33L66.0796 33C61.782 33 57.6605 34.7072 54.6217 37.746C51.5829 40.7848 49.8757 44.9063 49.8757 49.2038L49.8757 180.815L50.0737 180.815L50.0737 227.032C50.0736 228.816 50.5308 230.571 51.4017 232.129C52.2726 233.686 53.5281 234.995 55.0483 235.929C56.5687 236.864 58.3031 237.393 60.0862 237.466C61.8691 237.54 63.6412 237.155 65.2334 236.349L118.508 209.343C119.959 208.615 121.561 208.236 123.185 208.236C124.808 208.236 126.41 208.615 127.861 209.343L182.774 236.547C184.367 237.336 186.136 237.706 187.911 237.621C189.688 237.535 191.412 236.998 192.922 236.059C194.432 235.121 195.678 233.812 196.541 232.258C197.404 230.703 197.855 228.954 197.853 227.176L197.709 180.815L197.709 49.1588C197.697 44.8815 195.994 40.7824 192.972 37.7554C189.95 34.7284 185.854 33.019 181.577 33L181.577 33Z" fill-rule="evenodd" fill="url(#paint_linear_5_893_0)"/>
		<path d="M254 75.6249C254.004 79.1277 252.734 82.5123 250.426 85.1476C248.118 87.7829 244.931 89.4891 241.459 89.948C240.824 90.0289 240.185 90.0705 239.545 90.0724L191.487 90.0724C190.445 90.0701 189.404 89.9843 188.375 89.8157C183.958 89.0535 179.978 86.6842 177.203 83.1639C174.428 79.6436 173.052 75.2212 173.342 70.7478C173.632 66.2745 175.566 62.0664 178.772 58.9335C181.979 55.8006 186.23 53.9645 190.709 53.7784C193.031 48.738 196.928 44.5891 201.814 41.9575C206.699 39.3259 212.308 38.3545 217.794 39.1897C223.281 40.0248 228.346 42.6213 232.228 46.5875C236.109 50.5536 238.595 55.6744 239.311 61.1773L239.529 61.1773C241.428 61.1742 243.31 61.5456 245.065 62.2703C246.821 62.995 248.416 64.0587 249.76 65.4006C251.104 66.7425 252.171 68.3362 252.898 70.0906C253.626 71.845 254 73.7256 254 75.6249Z" fill-rule="evenodd" fill="url(#paint_linear_5_894_0)"/>
		<path d="M9.625 47.3281C9.625 50.2169 10.7726 52.9873 12.8152 55.03C14.8579 57.0726 17.6283 58.2202 20.5171 58.2202L56.6788 58.2202C60.2418 58.2014 63.6566 56.7921 66.1958 54.2926C68.7351 51.7931 70.198 48.401 70.2731 44.8388C70.3481 41.2766 69.0294 37.8258 66.5977 35.2216C64.166 32.6174 60.8136 31.0655 57.2546 30.8966C55.4993 27.1158 52.5649 24.0063 48.8921 22.0351C45.2192 20.0638 41.0061 19.3371 36.8851 19.964C32.7642 20.5909 28.9576 22.5377 26.0372 25.5119C23.1167 28.4862 21.2399 32.3276 20.6882 36.4594L20.5249 36.4594C17.6388 36.4573 14.8699 37.6007 12.8262 39.6386C10.7826 41.6764 9.63123 44.442 9.625 47.3281L9.625 47.3281Z" fill-rule="evenodd" fill="url(#paint_linear_5_895_0)"/>
		<g filter="url(#filter_5_896_dd)">
			<ellipse cx="128.612427" cy="155.179260" rx="52.140228" ry="11.172906" fill="#FF7B85" fill-opacity="0.39"/>
		</g>
		<path d="M128.113 58.8001L140.932 84.7712C141.312 85.5412 141.874 86.2073 142.569 86.7122C143.263 87.2172 144.07 87.5458 144.92 87.6699L173.574 91.8019C174.544 91.9505 175.454 92.3655 176.202 93.0007C176.951 93.6359 177.508 94.4664 177.812 95.3996C178.116 96.3328 178.156 97.3322 177.926 98.2864C177.695 99.2406 177.205 100.112 176.509 100.804L155.804 121.014C155.188 121.613 154.728 122.353 154.462 123.171C154.197 123.988 154.135 124.857 154.282 125.704L159.179 154.241C159.347 155.216 159.239 156.219 158.866 157.137C158.493 158.054 157.871 158.848 157.07 159.43C156.269 160.012 155.321 160.358 154.334 160.429C153.346 160.499 152.359 160.292 151.483 159.831L125.854 146.328C125.093 145.929 124.246 145.72 123.387 145.72C122.528 145.72 121.681 145.929 120.92 146.328L95.2914 159.831C94.4158 160.29 93.4292 160.495 92.4432 160.423C91.4573 160.351 90.5111 160.004 89.7115 159.423C88.912 158.842 88.2909 158.048 87.9185 157.132C87.5459 156.217 87.4369 155.215 87.6035 154.241L92.4917 125.704C92.6385 124.857 92.5767 123.988 92.3116 123.171C92.0465 122.353 91.5861 121.613 90.9703 121.014L70.2655 100.804C69.5692 100.112 69.0787 99.2406 68.8485 98.2864C68.6184 97.3322 68.6576 96.3328 68.9618 95.3996C69.266 94.4664 69.8234 93.6359 70.5717 93.0007C71.3199 92.3655 72.2299 91.9505 73.2002 91.8019L101.854 87.6429C102.704 87.5188 103.511 87.1902 104.205 86.6852C104.9 86.1803 105.462 85.5142 105.842 84.7442L118.661 58.7731C119.107 57.9021 119.785 57.1716 120.621 56.6624C121.457 56.1532 122.417 55.8852 123.395 55.888C124.374 55.8908 125.333 56.1643 126.165 56.6783C126.998 57.1922 127.672 57.9266 128.113 58.8001Z" fill-rule="evenodd" fill="url(#paint_linear_5_897_0)"/>
		<path d="M0 186.589C-0.00170898 190.077 1.26477 193.447 3.5636 196.071C5.8623 198.694 9.03662 200.393 12.4948 200.85C13.1238 200.937 13.7581 200.981 14.3932 200.982L62.2406 200.982C63.2831 200.98 64.3239 200.895 65.3525 200.725C69.7762 199.989 73.7687 197.635 76.5552 194.122C79.3417 190.608 80.7236 186.184 80.4329 181.709C80.1421 177.234 78.1993 173.027 74.9816 169.903C71.7637 166.779 67.5004 164.962 63.0186 164.805C60.7041 159.789 56.8223 155.661 51.9578 153.043C47.0933 150.425 41.5096 149.459 36.0485 150.29C30.5872 151.122 25.5439 153.705 21.6788 157.652C17.8136 161.599 15.3358 166.695 14.6188 172.172L14.3932 172.172C12.5011 172.172 10.6276 172.545 8.87976 173.27C7.13196 173.995 5.54419 175.057 4.2074 176.396C2.87061 177.735 1.81091 179.325 1.08887 181.074C0.366943 182.823 -0.00305176 184.697 0 186.589L0 186.589Z" fill-rule="evenodd" fill="url(#paint_linear_5_898_0)"/>
		<path d="M215.523 107.046L217.648 115.38C217.963 116.615 219.496 117.046 220.408 116.156L226.563 110.148C227.475 109.258 227.082 107.715 225.855 107.37L217.575 105.043C216.348 104.699 215.208 105.811 215.523 107.046Z" fill-rule="evenodd" fill="#FFBEBD"/>
		<path d="M24.3422 107.046L26.467 115.38C26.7819 116.615 28.3153 117.046 29.2272 116.156L35.3823 110.148C36.2942 109.258 35.9008 107.715 34.6741 107.37L26.3938 105.043C25.1671 104.699 24.0273 105.811 24.3422 107.046Z" fill-rule="evenodd" fill="#FFBEBD"/>
		<path d="M88.6108 7.99867L86.964 14.8206C86.7892 15.5449 86.2236 16.1105 85.4993 16.2853L78.6774 17.9321C76.6504 18.4214 76.6504 21.3045 78.6774 21.7938L85.4993 23.4406C86.2236 23.6154 86.7892 24.181 86.964 24.9053L88.6108 31.7272C89.1001 33.7542 91.9832 33.7542 92.4725 31.7272L94.1193 24.9053C94.2941 24.181 94.8596 23.6154 95.584 23.4406L102.406 21.7938C104.433 21.3045 104.433 18.4214 102.406 17.9321L95.584 16.2853C94.8596 16.1105 94.2941 15.5449 94.1193 14.8206L92.4725 7.99867C91.9832 5.97174 89.1001 5.97174 88.6108 7.99867Z" fill-rule="evenodd" fill="#FFBEBD"/>
		<path d="M134.406 226.768C134.406 229.968 131.812 232.562 128.612 232.562C125.413 232.562 122.819 229.968 122.819 226.768C122.819 223.569 125.413 220.975 128.612 220.975C131.812 220.975 134.406 223.569 134.406 226.768ZM129.9 229.82Q129.288 230.079 128.612 230.079Q127.937 230.079 127.325 229.82Q126.731 229.569 126.272 229.109Q125.812 228.65 125.561 228.056Q125.302 227.444 125.302 226.768Q125.302 226.093 125.561 225.481Q125.812 224.887 126.272 224.428Q126.731 223.968 127.325 223.717Q127.937 223.458 128.612 223.458Q129.288 223.458 129.9 223.717Q130.494 223.968 130.953 224.428Q131.413 224.887 131.664 225.481Q131.923 226.093 131.923 226.768Q131.923 227.444 131.664 228.056Q131.413 228.65 130.953 229.109Q130.494 229.569 129.9 229.82Z" fill-rule="evenodd" fill="#FFBEBD"/>
		<path d="M214.41 189.248L212.763 196.07C212.588 196.794 212.022 197.36 211.298 197.535L204.476 199.182C202.449 199.671 202.449 202.554 204.476 203.043L211.298 204.69C212.022 204.865 212.588 205.43 212.763 206.155L214.41 212.977C214.899 215.004 217.782 215.004 218.271 212.977L219.918 206.155C220.093 205.43 220.658 204.865 221.383 204.69L228.205 203.043C230.232 202.554 230.232 199.671 228.205 199.182L221.383 197.535C220.658 197.36 220.093 196.794 219.918 196.07L218.271 189.248C217.782 187.221 214.899 187.221 214.41 189.248Z" fill-rule="evenodd" fill="#FFBEBD"/>
		<circle cx="222.133667" cy="160.558807" r="4.551925" stroke="#FC9999" stroke-width="2.482868"/>
	</g>
	<defs>
		<filter id="filter_5_891_dd" x="9.227051" y="187.227005" width="228.545898" height="86.546005" filterUnits="userSpaceOnUse" color-interpolation-filters="sRGB">
			<feFlood flood-opacity="0" result="BackgroundImageFix"/>
			<feBlend mode="normal" in="SourceGraphic" in2="BackgroundImageFix" result="shape"/>
			<feGaussianBlur stdDeviation="7.25767" result="effect_layerBlur_1"/>
		</filter>
		<filter id="filter_5_896_dd" x="55.781616" y="123.315781" width="145.661621" height="63.726944" filterUnits="userSpaceOnUse" color-interpolation-filters="sRGB">
			<feFlood flood-opacity="0" result="BackgroundImageFix"/>
			<feBlend mode="normal" in="SourceGraphic" in2="BackgroundImageFix" result="shape"/>
			<feGaussianBlur stdDeviation="6.89686" result="effect_layerBlur_1"/>
		</filter>
		<linearGradient id="paint_linear_5_892_0" x1="123.815826" y1="-19.349457" x2="126.167877" y2="383.463226" gradientUnits="userSpaceOnUse">
			<stop stop-color="#FFE1E1" stop-opacity="0.000000"/>
			<stop offset="1.000000" stop-color="#FFE1E0"/>
		</linearGradient>
		<linearGradient id="paint_linear_5_893_0" x1="233.854065" y1="248.171631" x2="56.447212" y2="88.768974" gradientUnits="userSpaceOnUse">
			<stop stop-color="#FF9999"/>
			<stop offset="1.000000" stop-color="#FFE7D9"/>
		</linearGradient>
		<linearGradient id="paint_linear_5_894_0" x1="238.686401" y1="112.142838" x2="198.546661" y2="38.898247" gradientUnits="userSpaceOnUse">
			<stop stop-color="#FFBEBD"/>
			<stop offset="1.000000" stop-color="#FFF5F5"/>
		</linearGradient>
		<linearGradient id="paint_linear_5_895_0" x1="58.766319" y1="74.813828" x2="28.597252" y2="19.744869" gradientUnits="userSpaceOnUse">
			<stop stop-color="#FFBEBD"/>
			<stop offset="1.000000" stop-color="#FFF5F5"/>
		</linearGradient>
		<linearGradient id="paint_linear_5_897_0" x1="77.525154" y1="83.938568" x2="273.375244" y2="160.346436" gradientUnits="userSpaceOnUse">
			<stop stop-color="#FFDDAC"/>
			<stop offset="0.703690" stop-color="#FF426F"/>
		</linearGradient>
		<linearGradient id="paint_linear_5_898_0" x1="65.199921" y1="222.969437" x2="25.172089" y2="149.999985" gradientUnits="userSpaceOnUse">
			<stop stop-color="#FFBEBD"/>
			<stop offset="1.000000" stop-color="#FFF5F5"/>
		</linearGradient>
	</defs>
</svg>
